<svg width="1440" height="651" viewBox="0 0 1440 651" fill="none" xmlns="http://www.w3.org/2000/svg">
<line y1="354.5" x2="743" y2="354.5" stroke="#6D6E71" stroke-width="15"/>
<line x1="697" y1="354.5" x2="1440" y2="354.5" stroke="#6D6E71" stroke-width="15"/>
<line y1="574.5" x2="1440" y2="574.5" stroke="black" stroke-width="15"/>
<line x1="-6.55671e-07" y1="643.5" x2="1440" y2="643.5" stroke="black" stroke-width="15"/>
<g clip-path="url(#clip0_601_30)">
<path d="M855.138 464.245L743.517 386.436L744.597 273.16L856.245 350.931" fill="white"/>
<path d="M855.138 464.245L743.517 386.436L744.597 273.16L856.245 350.931" stroke="#231F20" stroke-width="3" stroke-miterlimit="10"/>
<path d="M854.639 349.998C858.197 361.452 863.091 381.663 863.112 405.318C863.15 432.921 858.675 451.819 855.139 464.245L1338.51 462.131C1342.04 449.706 1346.52 430.807 1346.48 403.204C1346.46 379.512 1341.57 359.339 1338.01 347.884L854.639 349.998Z" fill="white" stroke="#231F20" stroke-width="3" stroke-miterlimit="10"/>
<path d="M1338.45 347.882L1226.8 270.074L744.596 273.16" fill="white"/>
<path d="M1338.45 347.882L1226.8 270.074L744.596 273.16" stroke="#231F20" stroke-miterlimit="10"/>
<path d="M968.66 388.949L964.436 388.997C964.372 391.525 964.34 395.765 964.34 401.717C964.34 408.405 964.356 412.885 964.388 415.157L968.564 415.253C968.628 416.117 968.628 417.045 968.564 418.037C964.5 418.005 961.844 417.989 960.596 417.989C960.052 417.989 958.628 418.005 956.324 418.037C954.02 418.037 952.708 418.037 952.388 418.037C952.292 417.077 952.292 416.165 952.388 415.301L956.564 415.157C956.66 412.853 956.708 408.357 956.708 401.669C956.708 395.781 956.676 391.605 956.612 389.141C953.86 389.077 952.02 389.045 951.092 389.045C950.196 389.045 948.372 389.077 945.62 389.141C945.556 392.405 945.524 396.613 945.524 401.765C945.524 407.717 945.54 412.181 945.572 415.157L949.7 415.253C949.796 416.117 949.796 417.045 949.7 418.037C945.604 418.005 942.932 417.989 941.684 417.989C941.14 417.989 939.732 418.005 937.46 418.037C935.188 418.037 933.892 418.037 933.572 418.037C933.508 417.077 933.508 416.165 933.572 415.301L937.748 415.157C937.844 412.949 937.892 408.485 937.892 401.765C937.892 395.013 937.86 390.773 937.796 389.045L933.668 388.949C933.572 388.053 933.572 387.109 933.668 386.117L941.492 386.117L960.5 386.117L968.66 386.117C968.724 387.109 968.724 388.053 968.66 388.949ZM974.054 405.173C974.054 400.949 974.022 397.701 973.958 395.429L970.694 395.285C970.63 394.421 970.63 393.541 970.694 392.645C974.054 392.677 976.358 392.693 977.606 392.693C978.15 392.693 979.318 392.693 981.11 392.693C982.934 392.661 984.006 392.645 984.326 392.645C984.39 393.573 984.39 394.453 984.326 395.285L981.878 395.429C981.75 397.829 981.686 402.133 981.686 408.341L989.798 398.021L989.798 395.429L987.158 395.285C987.094 394.421 987.094 393.541 987.158 392.645C989.974 392.677 992.006 392.693 993.254 392.693C993.798 392.693 995.11 392.693 997.19 392.693C999.27 392.661 1000.47 392.645 1000.79 392.645C1000.85 393.573 1000.85 394.453 1000.79 395.285L997.622 395.429C997.494 397.637 997.43 400.869 997.43 405.125C997.43 409.605 997.462 412.981 997.526 415.253L1000.79 415.397C1000.85 416.261 1000.85 417.141 1000.79 418.037C997.43 418.005 995.126 417.989 993.878 417.989C993.334 417.989 992.15 418.005 990.326 418.037C988.534 418.037 987.478 418.037 987.158 418.037C987.094 417.109 987.094 416.229 987.158 415.397L989.606 415.253C989.734 412.853 989.798 408.485 989.798 402.149L981.686 412.469L981.686 415.253L984.326 415.397C984.39 416.261 984.39 417.141 984.326 418.037C981.51 418.005 979.478 417.989 978.23 417.989C977.686 417.989 976.374 418.005 974.294 418.037C972.214 418.037 971.014 418.037 970.694 418.037C970.63 417.109 970.63 416.229 970.694 415.397L973.862 415.253C973.99 413.045 974.054 409.685 974.054 405.173ZM1022.2 395.477L1018.89 395.477C1018.79 397.717 1018.74 401.013 1018.74 405.365C1018.74 407.541 1018.77 410.837 1018.84 415.253L1022.82 415.397C1022.92 416.261 1022.92 417.141 1022.82 418.037C1018.89 418.005 1016.29 417.989 1015.05 417.989C1014.5 417.989 1013.13 418.005 1010.92 418.037C1008.71 418.037 1007.45 418.037 1007.13 418.037C1007.06 417.109 1007.06 416.229 1007.13 415.397L1010.92 415.253C1011.05 413.045 1011.11 409.749 1011.11 405.365C1011.11 401.013 1011.08 397.701 1011.01 395.429L1007.7 395.477C1007.25 395.509 1006.95 395.589 1006.79 395.717C1006.66 395.845 1006.57 396.069 1006.5 396.389L1005.73 401.909C1005.51 401.941 1004.93 401.957 1004.01 401.957C1003.05 401.957 1002.44 401.941 1002.18 401.909L1002.18 392.357L1006.21 392.645L1023.69 392.645L1027.72 392.357L1027.72 401.909C1027.46 401.941 1026.85 401.957 1025.89 401.957C1024.97 401.957 1024.39 401.941 1024.17 401.909L1023.4 396.389C1023.33 396.069 1023.22 395.845 1023.06 395.717C1022.93 395.557 1022.65 395.477 1022.2 395.477ZM1041.44 394.757C1040.19 394.757 1039.18 395.589 1038.41 397.253C1037.68 398.885 1037.31 400.949 1037.31 403.445L1044.84 403.157C1045 397.557 1043.87 394.757 1041.44 394.757ZM1045.61 414.629C1047.47 414.629 1049.42 414.117 1051.47 413.093L1052.28 415.445C1051.9 415.669 1051.39 415.957 1050.75 416.309C1050.11 416.661 1048.89 417.125 1047.1 417.701C1045.34 418.277 1043.71 418.565 1042.2 418.565C1038.27 418.565 1035.15 417.477 1032.84 415.301C1030.54 413.093 1029.39 410.181 1029.39 406.565C1029.39 402.117 1030.56 398.581 1032.89 395.957C1035.23 393.301 1038.3 391.973 1042.11 391.973C1044.19 391.973 1045.98 392.389 1047.48 393.221C1048.99 394.021 1050.11 395.093 1050.84 396.437C1051.61 397.781 1052.16 399.157 1052.48 400.565C1052.83 401.941 1053 403.365 1053 404.837L1053 405.749L1037.36 405.749C1037.61 408.373 1038.41 410.517 1039.76 412.181C1041.13 413.813 1043.08 414.629 1045.61 414.629ZM1071.48 429.461C1066.49 429.429 1063.37 429.413 1062.12 429.413C1061.96 429.413 1061.61 429.413 1061.07 429.413C1060.55 429.445 1059.75 429.461 1058.67 429.461C1057.61 429.461 1056.36 429.461 1054.92 429.461C1054.89 428.565 1054.89 427.717 1054.92 426.917L1057.85 426.725C1057.91 425.765 1057.98 420.869 1058.04 412.037C1058.04 411.109 1058.04 409.765 1058.04 408.005C1058.07 406.245 1058.09 404.965 1058.09 404.165C1058.09 400.997 1058.06 398.389 1057.99 396.341L1054.78 395.333C1054.71 394.533 1054.71 393.765 1054.78 393.029L1065.72 392.117L1065.48 395.285C1066.38 394.325 1067.4 393.541 1068.55 392.933C1069.74 392.293 1070.84 391.973 1071.87 391.973C1074.84 391.973 1077.18 393.189 1078.87 395.621C1080.57 398.021 1081.42 400.917 1081.42 404.309C1081.42 408.661 1080.06 412.117 1077.34 414.677C1074.62 417.237 1071.27 418.517 1067.31 418.517C1066.89 418.517 1066.33 418.485 1065.63 418.421C1065.63 422.581 1065.64 425.301 1065.67 426.581L1071.48 426.821C1071.55 427.525 1071.55 428.405 1071.48 429.461ZM1065.67 407.957C1065.67 408.373 1065.66 409.333 1065.63 410.837C1065.63 412.309 1065.63 413.557 1065.63 414.581C1066.27 415.221 1067.03 415.541 1067.93 415.541C1069.75 415.541 1071.15 414.661 1072.11 412.901C1073.07 411.141 1073.55 408.917 1073.55 406.229C1073.55 403.381 1073.1 401.061 1072.2 399.269C1071.31 397.445 1069.95 396.533 1068.12 396.533C1067.29 396.533 1066.47 396.709 1065.67 397.061L1065.67 407.957ZM1101.53 386.117L1113.53 386.117L1118.86 385.877C1118.86 386.005 1118.86 386.517 1118.86 387.413C1118.86 388.277 1118.86 389.445 1118.86 390.917C1118.89 392.389 1118.91 393.925 1118.91 395.525C1118.04 395.653 1117.23 395.717 1116.46 395.717C1115.66 395.717 1114.87 395.653 1114.11 395.525L1113.82 390.533C1113.75 389.669 1113.19 389.237 1112.14 389.237L1105.37 389.189C1105.31 391.205 1105.27 394.677 1105.27 399.605C1106.91 399.381 1108.52 399.269 1110.12 399.269L1111.13 399.269C1118.07 399.269 1121.55 402.213 1121.55 408.101C1121.55 411.205 1120.39 413.669 1118.09 415.493C1115.79 417.285 1112.44 418.181 1108.06 418.181C1107.58 418.181 1106.59 418.149 1105.08 418.085C1103.58 418.021 1102.31 417.989 1101.29 417.989C1101.19 417.989 1100.12 418.005 1098.07 418.037C1096.03 418.037 1094.46 418.037 1093.37 418.037C1093.31 417.333 1093.31 416.421 1093.37 415.301L1097.5 415.157C1097.59 412.853 1097.64 408.373 1097.64 401.717C1097.64 395.797 1097.61 391.557 1097.55 388.997L1093.47 388.901C1093.4 388.165 1093.4 387.221 1093.47 386.069C1094.91 386.069 1096.6 386.085 1098.55 386.117C1100.51 386.117 1101.5 386.117 1101.53 386.117ZM1107.58 415.061C1109.66 415.061 1111.21 414.453 1112.23 413.237C1113.29 411.989 1113.82 410.389 1113.82 408.437C1113.82 406.645 1113.34 405.237 1112.38 404.213C1111.45 403.157 1109.96 402.629 1107.91 402.629L1107.1 402.629C1106.33 402.629 1105.72 402.661 1105.27 402.725C1105.27 409.061 1105.29 413.125 1105.32 414.917C1105.87 414.949 1106.62 414.997 1107.58 415.061ZM1126.91 405.173C1126.91 400.949 1126.88 397.701 1126.82 395.429L1123.55 395.285C1123.49 394.421 1123.49 393.541 1123.55 392.645C1126.91 392.677 1129.22 392.693 1130.47 392.693C1131.01 392.693 1132.18 392.693 1133.97 392.693C1135.79 392.661 1136.87 392.645 1137.19 392.645C1137.25 393.573 1137.25 394.453 1137.19 395.285L1134.74 395.429C1134.61 397.829 1134.55 402.133 1134.55 408.341L1142.66 398.021L1142.66 395.429L1140.02 395.285C1139.95 394.421 1139.95 393.541 1140.02 392.645C1142.83 392.677 1144.87 392.693 1146.11 392.693C1146.66 392.693 1147.97 392.693 1150.05 392.693C1152.13 392.661 1153.33 392.645 1153.65 392.645C1153.71 393.573 1153.71 394.453 1153.65 395.285L1150.48 395.429C1150.35 397.637 1150.29 400.869 1150.29 405.125C1150.29 409.605 1150.32 412.981 1150.39 415.253L1153.65 415.397C1153.71 416.261 1153.71 417.141 1153.65 418.037C1150.29 418.005 1147.99 417.989 1146.74 417.989C1146.19 417.989 1145.01 418.005 1143.19 418.037C1141.39 418.037 1140.34 418.037 1140.02 418.037C1139.95 417.109 1139.95 416.229 1140.02 415.397L1142.47 415.253C1142.59 412.853 1142.66 408.485 1142.66 402.149L1134.55 412.469L1134.55 415.253L1137.19 415.397C1137.25 416.261 1137.25 417.141 1137.19 418.037C1134.37 418.005 1132.34 417.989 1131.09 417.989C1130.55 417.989 1129.23 418.005 1127.15 418.037C1125.07 418.037 1123.87 418.037 1123.55 418.037C1123.49 417.109 1123.49 416.229 1123.55 415.397L1126.72 415.253C1126.85 413.045 1126.91 409.685 1126.91 405.173ZM1161.38 395.429L1156.91 395.285C1156.85 394.421 1156.85 393.541 1156.91 392.645C1159.86 392.677 1161.95 392.693 1163.2 392.693L1174.39 392.693C1174.93 392.693 1176.16 392.693 1178.08 392.693C1180.03 392.661 1181.17 392.645 1181.49 392.645C1181.55 393.573 1181.55 394.453 1181.49 395.285L1178.32 395.429C1178.19 397.637 1178.13 401.173 1178.13 406.037C1178.13 409.909 1178.16 412.981 1178.23 415.253L1181.49 415.397C1181.55 416.261 1181.55 417.141 1181.49 418.037C1177.97 418.005 1175.59 417.989 1174.34 417.989C1173.79 417.989 1172.58 418.005 1170.69 418.037C1168.83 418.037 1167.75 418.037 1167.43 418.037C1167.36 417.109 1167.36 416.229 1167.43 415.397L1170.31 415.253C1170.43 412.533 1170.5 409.445 1170.5 405.989C1170.5 400.997 1170.48 397.493 1170.45 395.477C1170.26 395.477 1169.83 395.477 1169.15 395.477C1168.51 395.445 1168.02 395.429 1167.67 395.429C1167.22 395.429 1166.69 395.445 1166.08 395.477C1165.47 395.477 1165.12 395.477 1165.03 395.477C1165.19 404.085 1164.71 410.117 1163.59 413.573C1162.47 416.997 1160.42 418.709 1157.44 418.709C1155.71 418.709 1154.39 418.453 1153.46 417.941C1153.49 417.333 1153.68 416.437 1154.03 415.253C1154.39 414.037 1154.72 413.205 1155.04 412.757C1155.59 413.077 1156.35 413.237 1157.35 413.237C1159.01 413.237 1160.16 411.797 1160.8 408.917C1161.44 406.037 1161.63 401.541 1161.38 395.429ZM1189.37 401.813L1185.14 401.813C1184.76 400.757 1184.57 399.717 1184.57 398.693C1184.57 396.709 1185.53 395.093 1187.45 393.845C1189.4 392.597 1191.73 391.973 1194.45 391.973C1196.12 391.973 1197.56 392.213 1198.77 392.693C1200.02 393.173 1200.95 393.829 1201.56 394.661C1202.2 395.493 1202.66 396.341 1202.95 397.205C1203.24 398.069 1203.38 398.981 1203.38 399.941C1203.35 402.885 1203.33 406.869 1203.33 411.893L1203.33 414.917L1206.6 415.013C1206.63 415.749 1206.63 416.405 1206.6 416.981L1196.76 418.613L1196.13 415.157C1195.4 416.149 1194.49 416.981 1193.4 417.653C1192.31 418.325 1191.24 418.661 1190.18 418.661C1188.17 418.661 1186.5 418.053 1185.19 416.837C1183.91 415.621 1183.27 414.005 1183.27 411.989C1183.27 406.965 1187.45 404.421 1195.8 404.357L1195.8 400.421C1195.77 396.997 1194.69 395.285 1192.58 395.285C1191.46 395.285 1190.57 395.621 1189.89 396.293C1189.22 396.965 1188.89 397.829 1188.89 398.885C1188.89 399.301 1189.05 400.277 1189.37 401.813ZM1195.7 413.381L1195.7 406.517C1194.1 406.517 1192.85 406.869 1191.96 407.573C1191.06 408.245 1190.61 409.189 1190.61 410.405C1190.61 412.869 1191.67 414.101 1193.78 414.101C1194.58 414.101 1195.22 413.861 1195.7 413.381ZM1224.01 415.397L1225.88 415.349L1219.4 405.557L1227.52 395.573L1223.82 395.237C1223.76 394.565 1223.76 393.701 1223.82 392.645C1224.59 392.645 1225.69 392.661 1227.13 392.693C1228.6 392.693 1229.42 392.693 1229.58 392.693L1235.63 392.645C1235.69 393.349 1235.69 394.229 1235.63 395.285L1231.64 395.765L1225.31 402.677L1234.76 415.253L1237.4 415.349C1237.47 416.053 1237.47 416.965 1237.4 418.085C1234.2 418.021 1231.98 417.989 1230.73 417.989C1229.58 417.989 1228.22 418.005 1226.65 418.037C1225.08 418.037 1224.2 418.037 1224.01 418.037C1223.95 417.333 1223.95 416.453 1224.01 415.397ZM1218.78 405.461C1218.78 410.101 1218.8 413.365 1218.83 415.253L1221.37 415.397C1221.44 416.261 1221.44 417.141 1221.37 418.037C1218.4 418.005 1216.28 417.989 1215.04 417.989C1214.49 417.989 1213.23 418.005 1211.24 418.037C1209.26 418.037 1208.11 418.037 1207.79 418.037C1207.72 417.109 1207.72 416.229 1207.79 415.397L1210.96 415.253C1211.08 413.045 1211.15 409.749 1211.15 405.365C1211.15 401.013 1211.12 397.701 1211.05 395.429L1207.79 395.285C1207.72 394.421 1207.72 393.541 1207.79 392.645C1211.4 392.677 1213.84 392.693 1215.08 392.693C1215.63 392.693 1216.73 392.693 1218.4 392.693C1220.06 392.661 1221.05 392.645 1221.37 392.645C1221.44 393.573 1221.44 394.453 1221.37 395.285L1218.88 395.429C1218.81 397.221 1218.78 400.565 1218.78 405.461Z" fill="black"/>
</g>
<g clip-path="url(#clip1_601_30)">
<rect x="839.74" y="259.859" width="43.7335" height="32.807" fill="white"/>
<path d="M854.713 337.797L743.434 259.501L745.008 146.23L856.315 224.489" fill="white"/>
<path d="M854.713 337.797L743.434 259.501L745.008 146.23L856.315 224.489" stroke="#231F20" stroke-width="3" stroke-miterlimit="10"/>
<path d="M854.711 223.549C858.219 235.019 863.024 255.251 862.942 278.905C862.859 306.508 858.302 325.387 854.711 337.797L1338.08 337.797C1341.67 325.387 1346.23 306.508 1346.31 278.905C1346.4 255.213 1341.59 235.019 1338.08 223.549L854.711 223.549Z" fill="white" stroke="#231F20" stroke-width="3" stroke-miterlimit="10"/>
<path d="M1338.53 223.549L1227.22 145.253L745.006 146.23" fill="white"/>
<path d="M1338.53 223.549L1227.22 145.253L745.006 146.23" stroke="#231F20" stroke-width="3" stroke-miterlimit="10"/>
<path d="M882.773 290.984L880.613 297.704L885.797 298.424C885.861 299.288 885.861 300.216 885.797 301.208C882.309 301.176 879.973 301.16 878.789 301.16C878.725 301.16 878.181 301.176 877.157 301.208C876.133 301.208 874.981 301.208 873.701 301.208C873.637 300.184 873.637 299.24 873.701 298.376L876.821 297.848L887.045 269.096H892.037L902.069 298.28L904.661 298.376C904.725 299.24 904.725 300.184 904.661 301.208C901.781 301.176 899.749 301.16 898.565 301.16C898.501 301.16 897.573 301.176 895.781 301.208C894.021 301.208 892.469 301.208 891.125 301.208C891.061 300.216 891.061 299.304 891.125 298.472L894.245 298.232L892.085 290.984H887.429L882.773 290.984ZM887.573 276.584L883.589 288.536C883.813 288.536 884.309 288.552 885.077 288.584C885.845 288.584 886.453 288.584 886.901 288.584C888.725 288.584 890.245 288.552 891.461 288.488L887.573 276.584ZM911.545 278.6L907.081 278.456C907.017 277.592 907.017 276.712 907.081 275.816C910.025 275.848 912.121 275.864 913.369 275.864L924.553 275.864C925.097 275.864 926.329 275.864 928.249 275.864C930.201 275.832 931.337 275.816 931.657 275.816C931.721 276.744 931.721 277.624 931.657 278.456L928.489 278.6C928.361 280.808 928.297 284.344 928.297 289.208C928.297 293.08 928.329 296.152 928.393 298.424L931.657 298.568C931.721 299.432 931.721 300.312 931.657 301.208C928.137 301.176 925.753 301.16 924.505 301.16C923.961 301.16 922.745 301.176 920.857 301.208C919.001 301.208 917.913 301.208 917.593 301.208C917.529 300.28 917.529 299.4 917.593 298.568L920.473 298.424C920.601 295.704 920.665 292.616 920.665 289.16C920.665 284.168 920.649 280.664 920.617 278.648C920.425 278.648 919.993 278.648 919.321 278.648C918.681 278.616 918.185 278.6 917.833 278.6C917.385 278.6 916.857 278.616 916.249 278.648C915.641 278.648 915.289 278.648 915.193 278.648C915.353 287.256 914.873 293.288 913.753 296.744C912.633 300.168 910.585 301.88 907.609 301.88C905.881 301.88 904.553 301.624 903.625 301.112C903.657 300.504 903.849 299.608 904.201 298.424C904.553 297.208 904.889 296.376 905.209 295.928C905.753 296.248 906.521 296.408 907.513 296.408C909.177 296.408 910.329 294.968 910.969 292.088C911.609 289.208 911.801 284.712 911.545 278.6ZM945.917 277.928C944.669 277.928 943.661 278.76 942.893 280.424C942.157 282.056 941.789 284.12 941.789 286.616L949.325 286.328C949.485 280.728 948.349 277.928 945.917 277.928ZM950.093 297.8C951.949 297.8 953.901 297.288 955.949 296.264L956.765 298.616C956.381 298.84 955.869 299.128 955.229 299.48C954.589 299.832 953.373 300.296 951.581 300.872C949.821 301.448 948.189 301.736 946.685 301.736C942.749 301.736 939.629 300.648 937.325 298.472C935.021 296.264 933.869 293.352 933.869 289.736C933.869 285.288 935.037 281.752 937.373 279.128C939.709 276.472 942.781 275.144 946.589 275.144C948.669 275.144 950.461 275.56 951.965 276.392C953.469 277.192 954.589 278.264 955.325 279.608C956.093 280.952 956.637 282.328 956.957 283.736C957.309 285.112 957.485 286.536 957.485 288.008V288.92L941.837 288.92C942.093 291.544 942.893 293.688 944.237 295.352C945.613 296.984 947.565 297.8 950.093 297.8ZM975.914 298.568L977.786 298.52L971.306 288.728L979.418 278.744L975.722 278.408C975.658 277.736 975.658 276.872 975.722 275.816C976.49 275.816 977.594 275.832 979.034 275.864C980.506 275.864 981.322 275.864 981.482 275.864L987.53 275.816C987.594 276.52 987.594 277.4 987.53 278.456L983.546 278.936L977.21 285.848L986.666 298.424L989.306 298.52C989.37 299.224 989.37 300.136 989.306 301.256C986.106 301.192 983.882 301.16 982.634 301.16C981.482 301.16 980.122 301.176 978.554 301.208C976.986 301.208 976.106 301.208 975.914 301.208C975.85 300.504 975.85 299.624 975.914 298.568ZM970.682 288.632C970.682 293.272 970.698 296.536 970.73 298.424L973.274 298.568C973.338 299.432 973.338 300.312 973.274 301.208C970.298 301.176 968.186 301.16 966.938 301.16C966.394 301.16 965.13 301.176 963.146 301.208C961.162 301.208 960.01 301.208 959.69 301.208C959.626 300.28 959.626 299.4 959.69 298.568L962.858 298.424C962.986 296.216 963.05 292.92 963.05 288.536C963.05 284.184 963.018 280.872 962.954 278.6L959.69 278.456C959.626 277.592 959.626 276.712 959.69 275.816C963.306 275.848 965.738 275.864 966.986 275.864C967.53 275.864 968.634 275.864 970.298 275.864C971.962 275.832 972.954 275.816 973.274 275.816C973.338 276.744 973.338 277.624 973.274 278.456L970.778 278.6C970.714 280.392 970.682 283.736 970.682 288.632ZM1002.65 278.6C1001.02 278.6 999.802 279.368 999.002 280.904C998.202 282.44 997.802 284.296 997.802 286.472C997.802 289.672 998.506 292.36 999.914 294.536C1001.32 296.68 1003.31 297.752 1005.87 297.752C1007.31 297.752 1009 297.32 1010.95 296.456L1011.63 298.568C1011.31 298.792 1010.87 299.08 1010.33 299.432C1009.79 299.784 1008.68 300.264 1007.02 300.872C1005.35 301.448 1003.71 301.736 1002.07 301.736C998.522 301.736 995.61 300.6 993.338 298.328C991.098 296.056 989.978 293.048 989.978 289.304C989.978 284.792 991.274 281.304 993.866 278.84C996.458 276.376 999.69 275.144 1003.56 275.144C1005.64 275.144 1007.45 275.528 1008.99 276.296C1010.55 277.032 1011.72 277.896 1012.49 278.888C1011.66 280.136 1010.39 281.4 1008.7 282.68C1008.63 282.584 1008.54 282.44 1008.41 282.248C1008.28 282.056 1008.01 281.736 1007.59 281.288C1007.18 280.808 1006.75 280.392 1006.3 280.04C1005.85 279.656 1005.29 279.32 1004.62 279.032C1003.98 278.744 1003.32 278.6 1002.65 278.6ZM1019.69 284.984H1015.47C1015.08 283.928 1014.89 282.888 1014.89 281.864C1014.89 279.88 1015.85 278.264 1017.77 277.016C1019.72 275.768 1022.06 275.144 1024.78 275.144C1026.44 275.144 1027.88 275.384 1029.1 275.864C1030.35 276.344 1031.27 277 1031.88 277.832C1032.52 278.664 1032.99 279.512 1033.27 280.376C1033.56 281.24 1033.71 282.152 1033.71 283.112C1033.67 286.056 1033.66 290.04 1033.66 295.064L1033.66 298.088L1036.92 298.184C1036.95 298.92 1036.95 299.576 1036.92 300.152L1027.08 301.784L1026.46 298.328C1025.72 299.32 1024.81 300.152 1023.72 300.824C1022.63 301.496 1021.56 301.832 1020.51 301.832C1018.49 301.832 1016.83 301.224 1015.51 300.008C1014.23 298.792 1013.59 297.176 1013.59 295.16C1013.59 290.136 1017.77 287.592 1026.12 287.528V283.592C1026.09 280.168 1025.02 278.456 1022.91 278.456C1021.79 278.456 1020.89 278.792 1020.22 279.464C1019.55 280.136 1019.21 281 1019.21 282.056C1019.21 282.472 1019.37 283.448 1019.69 284.984ZM1026.03 296.552L1026.03 289.688C1024.43 289.688 1023.18 290.04 1022.28 290.744C1021.39 291.416 1020.94 292.36 1020.94 293.576C1020.94 296.04 1021.99 297.272 1024.11 297.272C1024.91 297.272 1025.55 297.032 1026.03 296.552ZM1041.47 288.536C1041.47 284.184 1041.44 280.872 1041.38 278.6L1038.11 278.456C1038.05 277.592 1038.05 276.712 1038.11 275.816C1041.73 275.848 1044.16 275.864 1045.41 275.864C1045.95 275.864 1047.09 275.864 1048.82 275.864C1050.58 275.832 1051.62 275.816 1051.94 275.816C1052 276.744 1052 277.624 1051.94 278.456L1049.2 278.6C1049.14 280.392 1049.1 283.112 1049.1 286.76C1049.3 286.76 1049.79 286.776 1050.59 286.808C1051.42 286.808 1052.14 286.808 1052.75 286.808C1054.77 286.808 1056.08 286.792 1056.69 286.76C1056.69 283.208 1056.67 280.488 1056.64 278.6L1053.86 278.456C1053.79 277.592 1053.79 276.712 1053.86 275.816C1057.06 275.848 1059.28 275.864 1060.53 275.864C1061.07 275.864 1062.32 275.864 1064.27 275.864C1066.22 275.832 1067.36 275.816 1067.68 275.816C1067.74 276.744 1067.74 277.624 1067.68 278.456L1064.51 278.6C1064.38 280.808 1064.32 284.104 1064.32 288.488C1064.32 292.84 1064.35 296.152 1064.42 298.424L1067.68 298.568C1067.74 299.432 1067.74 300.312 1067.68 301.208C1064.29 301.176 1061.97 301.16 1060.72 301.16C1060.18 301.16 1058.98 301.176 1057.12 301.208C1055.26 301.208 1054.18 301.208 1053.86 301.208C1053.79 300.28 1053.79 299.4 1053.86 298.568L1056.54 298.424C1056.64 296.632 1056.69 293.688 1056.69 289.592C1056.46 289.592 1055.9 289.592 1055.01 289.592C1054.11 289.56 1053.34 289.544 1052.7 289.544C1052.1 289.544 1051.39 289.56 1050.59 289.592C1049.79 289.592 1049.3 289.592 1049.1 289.592C1049.1 294.52 1049.12 297.464 1049.15 298.424L1051.94 298.568C1052 299.432 1052 300.312 1051.94 301.208C1048.8 301.176 1046.61 301.16 1045.36 301.16C1044.82 301.16 1043.55 301.176 1041.57 301.208C1039.58 301.208 1038.43 301.208 1038.11 301.208C1038.05 300.28 1038.05 299.4 1038.11 298.568L1041.28 298.424C1041.41 296.216 1041.47 292.92 1041.47 288.536ZM1075.71 298.472L1080.12 298.472C1080.54 298.472 1081.26 298.472 1082.28 298.472C1083.31 298.44 1084.03 298.424 1084.44 298.424C1084.57 295.704 1084.64 292.136 1084.64 287.72C1084.64 283.688 1084.62 280.664 1084.59 278.648C1084.24 278.616 1083.36 278.6 1081.95 278.6C1080.51 278.6 1079.58 278.616 1079.16 278.648C1079.36 289.144 1078.2 295.752 1075.71 298.472ZM1068.65 298.568L1070.38 298.424C1072.33 298.232 1073.79 296.344 1074.75 292.76C1075.74 289.176 1076.08 284.456 1075.76 278.6L1071.1 278.456C1071.04 277.592 1071.04 276.712 1071.1 275.816C1074.2 275.848 1076.38 275.864 1077.63 275.864L1087.71 275.864C1088.25 275.864 1089.66 275.864 1091.93 275.864C1094.24 275.832 1095.55 275.816 1095.87 275.816C1095.93 276.744 1095.93 277.624 1095.87 278.456L1092.46 278.6C1092.33 280.808 1092.27 283.864 1092.27 287.768C1092.27 292.6 1092.3 296.152 1092.36 298.424L1096.78 298.568C1096.78 299.048 1096.78 300.504 1096.78 302.936C1096.81 305.4 1096.83 306.76 1096.83 307.016C1096.57 307.048 1095.92 307.064 1094.86 307.064C1093.8 307.064 1093.16 307.048 1092.94 307.016L1092.27 302.12C1092.24 301.512 1091.84 301.208 1091.07 301.208L1087.66 301.16L1076.86 301.16L1074.36 301.208C1073.6 301.208 1073.2 301.512 1073.16 302.12L1072.49 307.016C1072.27 307.048 1071.63 307.064 1070.57 307.064C1069.52 307.064 1068.86 307.048 1068.6 307.016C1068.6 306.76 1068.62 305.4 1068.65 302.936C1068.65 300.504 1068.65 299.048 1068.65 298.568ZM1114.48 312.632C1109.49 312.6 1106.37 312.584 1105.12 312.584C1104.96 312.584 1104.61 312.584 1104.06 312.584C1103.55 312.616 1102.75 312.632 1101.66 312.632C1100.61 312.632 1099.36 312.632 1097.92 312.632C1097.89 311.736 1097.89 310.888 1097.92 310.088L1100.85 309.896C1100.91 308.936 1100.97 304.04 1101.04 295.208C1101.04 294.28 1101.04 292.936 1101.04 291.176C1101.07 289.416 1101.09 288.136 1101.09 287.336C1101.09 284.168 1101.05 281.56 1100.99 279.512L1097.77 278.504C1097.71 277.704 1097.71 276.936 1097.77 276.2L1108.72 275.288L1108.48 278.456C1109.37 277.496 1110.4 276.712 1111.55 276.104C1112.73 275.464 1113.84 275.144 1114.86 275.144C1117.84 275.144 1120.17 276.36 1121.87 278.792C1123.57 281.192 1124.41 284.088 1124.41 287.48C1124.41 291.832 1123.05 295.288 1120.33 297.848C1117.61 300.408 1114.27 301.688 1110.3 301.688C1109.89 301.688 1109.33 301.656 1108.62 301.592C1108.62 305.752 1108.64 308.472 1108.67 309.752L1114.48 309.992C1114.54 310.696 1114.54 311.576 1114.48 312.632ZM1108.67 291.128C1108.67 291.544 1108.65 292.504 1108.62 294.008C1108.62 295.48 1108.62 296.728 1108.62 297.752C1109.26 298.392 1110.03 298.712 1110.93 298.712C1112.75 298.712 1114.14 297.832 1115.1 296.072C1116.06 294.312 1116.54 292.088 1116.54 289.4C1116.54 286.552 1116.09 284.232 1115.2 282.44C1114.3 280.616 1112.94 279.704 1111.12 279.704C1110.29 279.704 1109.47 279.88 1108.67 280.232V291.128ZM1158.78 301.208C1153.5 301.176 1150.25 301.16 1149.04 301.16C1148.94 301.16 1147.69 301.176 1145.29 301.208C1142.89 301.208 1141.13 301.208 1140.01 301.208C1139.95 300.216 1139.95 299.288 1140.01 298.424L1145.34 298.184C1145.41 295.912 1145.44 291.48 1145.44 284.888C1145.44 278.232 1145.42 274.024 1145.39 272.264L1141.74 272.312C1141.42 272.312 1141.12 272.456 1140.83 272.744C1140.57 273 1140.45 273.336 1140.45 273.752L1140.16 279.224C1139.29 279.352 1138.56 279.416 1137.95 279.416C1137.31 279.416 1136.48 279.352 1135.45 279.224L1135.5 268.904L1140.69 269.192L1149.18 269.24L1158.11 269.192L1163.25 268.904L1163.29 279.224C1162.37 279.352 1161.58 279.416 1160.94 279.416C1160.3 279.416 1159.53 279.352 1158.64 279.224L1158.35 273.656C1158.29 272.76 1157.76 272.312 1156.77 272.312L1153.17 272.264C1153.1 274.696 1153.07 278.888 1153.07 284.84C1153.07 291.56 1153.09 296.008 1153.12 298.184L1158.73 298.424C1158.83 299.384 1158.85 300.312 1158.78 301.208ZM1168.61 284.984L1164.39 284.984C1164 283.928 1163.81 282.888 1163.81 281.864C1163.81 279.88 1164.77 278.264 1166.69 277.016C1168.64 275.768 1170.98 275.144 1173.7 275.144C1175.36 275.144 1176.8 275.384 1178.02 275.864C1179.27 276.344 1180.2 277 1180.8 277.832C1181.44 278.664 1181.91 279.512 1182.2 280.376C1182.48 281.24 1182.63 282.152 1182.63 283.112C1182.6 286.056 1182.58 290.04 1182.58 295.064V298.088L1185.84 298.184C1185.88 298.92 1185.88 299.576 1185.84 300.152L1176 301.784L1175.38 298.328C1174.64 299.32 1173.73 300.152 1172.64 300.824C1171.56 301.496 1170.48 301.832 1169.43 301.832C1167.41 301.832 1165.75 301.224 1164.44 300.008C1163.16 298.792 1162.52 297.176 1162.52 295.16C1162.52 290.136 1166.69 287.592 1175.04 287.528V283.592C1175.01 280.168 1173.94 278.456 1171.83 278.456C1170.71 278.456 1169.81 278.792 1169.14 279.464C1168.47 280.136 1168.13 281 1168.13 282.056C1168.13 282.472 1168.29 283.448 1168.61 284.984ZM1174.95 296.552V289.688C1173.35 289.688 1172.1 290.04 1171.2 290.744C1170.31 291.416 1169.86 292.36 1169.86 293.576C1169.86 296.04 1170.92 297.272 1173.03 297.272C1173.83 297.272 1174.47 297.032 1174.95 296.552ZM1203.31 312.632C1198.31 312.6 1195.19 312.584 1193.95 312.584C1193.79 312.584 1193.43 312.584 1192.89 312.584C1192.38 312.616 1191.58 312.632 1190.49 312.632C1189.43 312.632 1188.19 312.632 1186.75 312.632C1186.71 311.736 1186.71 310.888 1186.75 310.088L1189.67 309.896C1189.74 308.936 1189.8 304.04 1189.87 295.208C1189.87 294.28 1189.87 292.936 1189.87 291.176C1189.9 289.416 1189.91 288.136 1189.91 287.336C1189.91 284.168 1189.88 281.56 1189.82 279.512L1186.6 278.504C1186.54 277.704 1186.54 276.936 1186.6 276.2L1197.55 275.288L1197.31 278.456C1198.2 277.496 1199.23 276.712 1200.38 276.104C1201.56 275.464 1202.67 275.144 1203.69 275.144C1206.67 275.144 1209 276.36 1210.7 278.792C1212.39 281.192 1213.24 284.088 1213.24 287.48C1213.24 291.832 1211.88 295.288 1209.16 297.848C1206.44 300.408 1203.1 301.688 1199.13 301.688C1198.71 301.688 1198.15 301.656 1197.45 301.592C1197.45 305.752 1197.47 308.472 1197.5 309.752L1203.31 309.992C1203.37 310.696 1203.37 311.576 1203.31 312.632ZM1197.5 291.128C1197.5 291.544 1197.48 292.504 1197.45 294.008C1197.45 295.48 1197.45 296.728 1197.45 297.752C1198.09 298.392 1198.86 298.712 1199.75 298.712C1201.58 298.712 1202.97 297.832 1203.93 296.072C1204.89 294.312 1205.37 292.088 1205.37 289.4C1205.37 286.552 1204.92 284.232 1204.03 282.44C1203.13 280.616 1201.77 279.704 1199.95 279.704C1199.11 279.704 1198.3 279.88 1197.5 280.232V291.128ZM1237.71 274.664L1232.62 274.664C1228.72 274.664 1225.79 275.368 1223.84 276.776C1221.89 278.184 1220.85 280.088 1220.72 282.488C1221.94 281.336 1223.42 280.392 1225.18 279.656C1226.98 278.92 1228.77 278.552 1230.56 278.552C1233.63 278.552 1236.16 279.4 1238.14 281.096C1240.16 282.792 1241.17 285.496 1241.17 289.208C1241.17 292.472 1240 295.368 1237.66 297.896C1235.36 300.424 1232.11 301.688 1227.92 301.688C1224.21 301.688 1221.25 300.456 1219.04 297.992C1216.83 295.496 1215.73 291.8 1215.73 286.904C1215.73 280.568 1217.36 275.848 1220.62 272.744C1223.89 269.64 1228.56 268.088 1234.64 268.088L1236.18 265.112C1237.2 265.048 1238.05 265.176 1238.72 265.496C1238.72 266.232 1238.59 267.784 1238.34 270.152C1238.11 272.488 1237.9 273.992 1237.71 274.664ZM1228.16 298.856C1230.11 298.856 1231.46 298.136 1232.19 296.696C1232.96 295.256 1233.34 293.064 1233.34 290.12C1233.34 287.144 1232.93 285.064 1232.1 283.88C1231.26 282.664 1230 282.056 1228.3 282.056C1226.38 282.056 1224.86 282.6 1223.74 283.688C1223.62 284.936 1223.55 286.712 1223.55 289.016C1223.55 295.576 1225.09 298.856 1228.16 298.856ZM1255.71 277.928C1254.47 277.928 1253.46 278.76 1252.69 280.424C1251.95 282.056 1251.59 284.12 1251.59 286.616L1259.12 286.328C1259.28 280.728 1258.15 277.928 1255.71 277.928ZM1259.89 297.8C1261.75 297.8 1263.7 297.288 1265.75 296.264L1266.56 298.616C1266.18 298.84 1265.67 299.128 1265.03 299.48C1264.39 299.832 1263.17 300.296 1261.38 300.872C1259.62 301.448 1257.99 301.736 1256.48 301.736C1252.55 301.736 1249.43 300.648 1247.12 298.472C1244.82 296.264 1243.67 293.352 1243.67 289.736C1243.67 285.288 1244.83 281.752 1247.17 279.128C1249.51 276.472 1252.58 275.144 1256.39 275.144C1258.47 275.144 1260.26 275.56 1261.76 276.392C1263.27 277.192 1264.39 278.264 1265.12 279.608C1265.89 280.952 1266.43 282.328 1266.75 283.736C1267.11 285.112 1267.28 286.536 1267.28 288.008V288.92L1251.63 288.92C1251.89 291.544 1252.69 293.688 1254.03 295.352C1255.41 296.984 1257.36 297.8 1259.89 297.8ZM1281.82 277.928C1280.58 277.928 1279.57 278.76 1278.8 280.424C1278.06 282.056 1277.7 284.12 1277.7 286.616L1285.23 286.328C1285.39 280.728 1284.26 277.928 1281.82 277.928ZM1286 297.8C1287.86 297.8 1289.81 297.288 1291.86 296.264L1292.67 298.616C1292.29 298.84 1291.78 299.128 1291.14 299.48C1290.5 299.832 1289.28 300.296 1287.49 300.872C1285.73 301.448 1284.1 301.736 1282.59 301.736C1278.66 301.736 1275.54 300.648 1273.23 298.472C1270.93 296.264 1269.78 293.352 1269.78 289.736C1269.78 285.288 1270.94 281.752 1273.28 279.128C1275.62 276.472 1278.69 275.144 1282.5 275.144C1284.58 275.144 1286.37 275.56 1287.87 276.392C1289.38 277.192 1290.5 278.264 1291.23 279.608C1292 280.952 1292.54 282.328 1292.86 283.736C1293.22 285.112 1293.39 286.536 1293.39 288.008V288.92L1277.74 288.92C1278 291.544 1278.8 293.688 1280.14 295.352C1281.52 296.984 1283.47 297.8 1286 297.8ZM1304.38 301.208L1295.64 301.208C1295.55 300.376 1295.55 299.496 1295.64 298.568L1298.81 298.424C1298.94 296.216 1299 293 1299 288.776C1299 284.264 1298.97 280.872 1298.91 278.6L1295.64 278.456C1295.55 277.592 1295.55 276.712 1295.64 275.816C1300.09 275.848 1302.94 275.864 1304.19 275.864L1310.48 275.816C1313.48 275.784 1315.72 276.328 1317.2 277.448C1318.7 278.536 1319.45 280.072 1319.45 282.056C1319.45 283.688 1318.94 284.984 1317.92 285.944C1316.92 286.904 1315.71 287.56 1314.27 287.912C1315.1 287.976 1315.84 288.088 1316.48 288.248C1317.12 288.408 1317.79 288.68 1318.49 289.064C1319.23 289.448 1319.79 290.024 1320.17 290.792C1320.56 291.528 1320.75 292.44 1320.75 293.528C1320.75 295.768 1319.8 297.64 1317.92 299.144C1316.06 300.616 1313.56 301.352 1310.43 301.352C1309.88 301.352 1308.86 301.32 1307.36 301.256C1305.85 301.224 1304.86 301.208 1304.38 301.208ZM1308.6 298.568C1310.04 298.568 1311.15 298.216 1311.92 297.512C1312.68 296.776 1313.07 295.416 1313.07 293.432C1313.07 292.248 1312.67 291.288 1311.87 290.552C1311.07 289.784 1309.92 289.4 1308.41 289.4H1307.69C1307.37 289.4 1306.99 289.432 1306.54 289.496C1306.54 293.944 1306.56 296.936 1306.59 298.472C1307.36 298.536 1308.03 298.568 1308.6 298.568ZM1307.84 278.6H1306.64C1306.57 280.2 1306.54 282.968 1306.54 286.904C1306.76 286.936 1307.13 286.952 1307.64 286.952H1308.32C1309.53 286.952 1310.43 286.568 1311 285.8C1311.61 285.032 1311.92 284.12 1311.92 283.064C1311.92 281.304 1311.63 280.12 1311.05 279.512C1310.48 278.904 1309.4 278.6 1307.84 278.6Z" fill="black"/>
</g>
<g clip-path="url(#clip2_601_30)">
<rect x="816.051" y="122.252" width="51.9336" height="82.9289" fill="white"/>
<path d="M823.131 215.678L712.534 148.18L707.008 40.4483L817.628 107.909" fill="white"/>
<path d="M823.131 215.678L712.534 148.18L707.008 40.4483L817.628 107.909" stroke="#231F20" stroke-width="3" stroke-miterlimit="10"/>
<path d="M816.05 107.115C820.094 117.797 825.915 136.724 827.303 159.206C828.935 185.441 825.775 203.663 823.133 215.678L1282.45 185.697C1285.09 173.682 1288.25 155.46 1286.62 129.226C1285.23 106.707 1279.41 87.8158 1275.37 77.1342L816.05 107.115Z" fill="white" stroke="#231F20" stroke-width="3" stroke-miterlimit="10"/>
<path d="M1275.79 77.1068L1165.17 9.61035L707.009 40.4483" fill="white"/>
<path d="M1275.79 77.1068L1165.17 9.61035L707.009 40.4483" stroke="#231F20" stroke-width="3" stroke-miterlimit="10"/>
<path d="M891.097 141.106L886.887 141.457C886.967 143.856 887.192 148.107 887.56 154.207C887.969 160.979 888.255 165.45 888.418 167.62C888.866 167.593 889.585 167.566 890.577 167.538C891.568 167.478 892.239 167.453 892.593 167.464C892.709 168.323 892.765 169.249 892.76 170.243C888.51 170.468 885.794 170.616 884.612 170.687C884.517 170.693 883.416 170.776 881.309 170.935C879.201 171.062 877.652 171.156 876.662 171.216C876.538 170.229 876.483 169.319 876.497 168.485L880.657 168.089C880.583 165.272 880.386 161.213 880.065 155.911L874.46 156.249L868.854 156.588C869.236 162.912 869.497 166.968 869.637 168.755C870.084 168.728 870.788 168.701 871.748 168.675C872.738 168.616 873.41 168.591 873.763 168.602C873.879 169.46 873.935 170.387 873.931 171.381C869.681 171.605 866.965 171.753 865.783 171.825C864.793 171.885 863.308 171.99 861.33 172.142C859.381 172.26 858.215 172.33 857.832 172.353C857.74 171.365 857.685 170.455 857.667 169.622L861.827 169.227C861.784 166.921 861.562 162.446 861.161 155.802C860.746 148.935 860.473 144.688 860.343 143.06L856.169 143.216C856.059 142.454 855.999 141.993 855.989 141.833C855.985 141.769 855.988 141.288 855.998 140.39C856.701 140.347 858.187 140.273 860.457 140.168C862.725 140.031 863.939 139.958 864.098 139.948L872.097 139.417C872.22 140.403 872.276 141.33 872.265 142.196L868.105 142.592C868.151 144.416 868.339 148.059 868.669 153.521C871.483 153.416 873.45 153.329 874.568 153.261C875.75 153.19 877.52 153.051 879.88 152.844C879.52 146.871 879.284 143.231 879.173 141.923L874.998 142.079C874.888 141.316 874.828 140.855 874.819 140.695C874.815 140.631 874.818 140.15 874.828 139.252C876.01 139.181 877.624 139.099 879.67 139.008C881.746 138.882 882.832 138.817 882.928 138.811L890.926 138.279C890.985 138.725 891.03 139.203 891.061 139.714C891.094 140.257 891.106 140.721 891.097 141.106ZM897.513 157.069C897.258 152.852 897.03 149.612 896.829 147.348L893.563 147.401C893.447 146.543 893.394 145.664 893.404 144.766C896.759 144.595 899.06 144.472 900.306 144.397C900.849 144.364 902.015 144.294 903.803 144.186C905.622 144.044 906.691 143.963 907.011 143.944C907.131 144.866 907.184 145.745 907.17 146.579L904.735 146.87C904.752 149.274 904.947 153.574 905.322 159.77L912.797 148.98L912.641 146.393L909.997 146.408C909.881 145.55 909.828 144.671 909.838 143.773C912.65 143.635 914.68 143.529 915.925 143.453C916.468 143.421 917.778 143.341 919.854 143.216C921.928 143.059 923.125 142.97 923.445 142.951C923.565 143.873 923.618 144.752 923.604 145.586L920.45 145.921C920.456 148.133 920.587 151.363 920.843 155.611C921.113 160.083 921.349 163.451 921.549 165.715L924.816 165.662C924.932 166.52 924.985 167.399 924.975 168.297C921.62 168.467 919.319 168.59 918.073 168.666C917.53 168.699 916.349 168.786 914.53 168.928C912.742 169.036 911.688 169.1 911.368 169.119C911.248 168.196 911.195 167.318 911.209 166.484L913.644 166.192C913.627 163.789 913.428 159.425 913.046 153.101L905.57 163.891L905.738 166.67L908.382 166.654C908.498 167.513 908.551 168.391 908.541 169.29C905.729 169.428 903.699 169.534 902.454 169.609C901.911 169.642 900.602 169.737 898.528 169.895C896.451 170.02 895.254 170.092 894.934 170.112C894.814 169.189 894.761 168.311 894.775 167.477L897.929 167.142C897.923 164.93 897.785 161.572 897.513 157.069ZM942.927 164.567L944.793 164.407L937.734 155.023L945.229 144.568L941.52 144.456C941.416 143.789 941.363 142.926 941.364 141.868C942.13 141.822 943.233 141.772 944.673 141.717C946.142 141.628 946.956 141.579 947.116 141.569L953.15 141.156C953.257 141.855 953.31 142.734 953.309 143.792L949.362 144.511L943.454 151.792L953.651 163.775L956.292 163.712C956.398 164.411 956.453 165.321 956.456 166.443C953.258 166.572 951.037 166.674 949.791 166.75C948.641 166.819 947.284 166.917 945.721 167.043C944.156 167.138 943.278 167.191 943.086 167.203C942.98 166.504 942.927 165.625 942.927 164.567ZM937.105 154.965C937.385 159.597 937.598 162.854 937.744 164.736L940.292 164.727C940.408 165.585 940.461 166.464 940.451 167.362C937.478 167.509 935.369 167.621 934.123 167.696C933.58 167.729 932.32 167.821 930.341 167.973C928.361 168.092 927.211 168.162 926.891 168.181C926.772 167.259 926.719 166.38 926.732 165.546L929.886 165.211C929.881 162.999 929.746 159.706 929.482 155.329C929.219 150.985 928.988 147.681 928.787 145.417L925.52 145.47C925.404 144.612 925.351 143.733 925.361 142.835C928.972 142.649 931.401 142.518 932.646 142.443C933.19 142.41 934.291 142.344 935.952 142.243C937.612 142.111 938.601 142.035 938.92 142.016C939.04 142.939 939.093 143.817 939.079 144.651L936.597 144.946C936.641 146.738 936.81 150.078 937.105 154.965ZM969.563 166.084C965.794 166.312 962.705 165.328 960.296 163.133C957.919 160.937 956.616 157.938 956.387 154.137C956.143 150.112 957.174 146.732 959.477 143.996C961.812 141.258 964.848 139.776 968.585 139.551C972.482 139.315 975.635 140.295 978.044 142.49C980.451 144.652 981.769 147.634 981.998 151.435C982.239 155.428 981.257 158.806 979.052 161.568C976.846 164.33 973.683 165.835 969.563 166.084ZM969.632 163.243C973.113 163.032 974.65 159.557 974.243 152.818C974.054 149.687 973.485 147.157 972.535 145.227C971.585 143.297 970.247 142.384 968.522 142.488C965.2 142.688 963.741 146.127 964.144 152.803C964.245 154.464 964.486 156.068 964.868 157.616C965.248 159.132 965.858 160.473 966.698 161.641C967.536 162.776 968.514 163.31 969.632 163.243ZM988.971 141.781L984.506 141.907C984.39 141.048 984.337 140.17 984.347 139.272C987.288 139.126 989.381 139.016 990.627 138.94L1001.79 138.266C1002.33 138.233 1003.56 138.159 1005.48 138.043C1007.43 137.893 1008.56 137.809 1008.88 137.79C1009 138.712 1009.05 139.59 1009.04 140.425L1005.88 140.76C1005.89 142.971 1006.04 146.505 1006.33 151.36C1006.57 155.225 1006.78 158.289 1006.98 160.553L1010.25 160.5C1010.37 161.359 1010.42 162.237 1010.41 163.135C1006.89 163.316 1004.51 163.444 1003.27 163.519C1002.72 163.552 1001.51 163.641 999.629 163.787C997.776 163.899 996.69 163.964 996.371 163.984C996.251 163.061 996.198 162.183 996.212 161.348L999.078 161.031C999.042 158.308 998.919 155.222 998.711 151.772C998.41 146.789 998.183 143.293 998.029 141.282C997.838 141.294 997.407 141.32 996.736 141.36C996.095 141.367 995.599 141.381 995.248 141.402C994.8 141.429 994.274 141.477 993.669 141.546C993.062 141.582 992.711 141.603 992.615 141.609C993.294 150.192 993.178 156.242 992.269 159.759C991.357 163.245 989.416 165.077 986.445 165.256C984.721 165.361 983.38 165.185 982.422 164.73C982.418 164.121 982.555 163.215 982.835 162.012C983.113 160.777 983.399 159.926 983.691 159.46C984.253 159.747 985.03 159.86 986.02 159.8C987.681 159.7 988.744 158.193 989.209 155.28C989.674 152.366 989.595 147.867 988.971 141.781ZM1017.29 146.466L1013.08 146.721C1012.63 145.69 1012.38 144.663 1012.31 143.641C1012.19 141.661 1013.05 139.99 1014.9 138.628C1016.77 137.265 1019.06 136.501 1021.78 136.337C1023.44 136.237 1024.89 136.389 1026.13 136.795C1027.41 137.199 1028.37 137.798 1029.03 138.592C1029.72 139.384 1030.23 140.202 1030.57 141.047C1030.91 141.892 1031.11 142.794 1031.17 143.752C1031.32 146.693 1031.54 150.67 1031.84 155.685L1032.03 158.704L1035.29 158.603C1035.37 159.336 1035.4 159.99 1035.41 160.567L1025.68 162.79L1024.85 159.378C1024.18 160.412 1023.32 161.298 1022.27 162.034C1021.23 162.77 1020.18 163.17 1019.12 163.234C1017.11 163.356 1015.41 162.849 1014.03 161.714C1012.68 160.578 1011.94 159.003 1011.82 156.991C1011.52 151.976 1015.53 149.185 1023.87 148.617L1023.63 144.689C1023.39 141.273 1022.22 139.629 1020.11 139.756C1018.99 139.823 1018.12 140.213 1017.49 140.924C1016.86 141.635 1016.57 142.518 1016.64 143.572C1016.66 143.987 1016.88 144.952 1017.29 146.466ZM1024.31 157.631L1023.9 150.779C1022.3 150.876 1021.08 151.302 1020.23 152.059C1019.37 152.784 1018.98 153.753 1019.06 154.967C1019.2 157.427 1020.33 158.593 1022.44 158.465C1023.24 158.417 1023.86 158.139 1024.31 157.631ZM1051.23 160.669C1050.4 160.719 1049.96 161.114 1049.91 161.855L1049.41 167.031C1049.15 167.078 1048.55 167.131 1047.59 167.189C1046.6 167.248 1045.96 167.271 1045.67 167.257C1045.65 166.937 1045.58 165.499 1045.46 162.941C1045.34 160.416 1045.26 158.882 1045.23 158.339L1046.8 158.148C1049.38 157.8 1051.13 155.241 1052.06 150.473C1052.99 145.672 1053.09 139.334 1052.36 131.46L1047.13 131.632C1047.01 130.773 1046.95 129.863 1046.96 128.901C1047.28 128.882 1048.4 128.83 1050.32 128.746C1052.27 128.628 1053.51 128.553 1054.05 128.52L1068 127.678L1075.37 127.184C1075.49 128.139 1075.55 129.049 1075.54 129.915L1071.33 130.266C1071.42 132.793 1071.64 137.059 1072 143.064C1072.44 150.283 1072.73 154.754 1072.86 156.477L1078.38 156.336C1078.42 156.879 1078.52 158.411 1078.71 160.933C1078.89 163.486 1079 164.922 1079.02 165.242C1078.73 165.291 1078.09 165.346 1077.1 165.406C1076.15 165.463 1075.54 165.484 1075.28 165.468L1074.16 160.39C1074.02 159.661 1073.53 159.322 1072.7 159.372L1051.23 160.669ZM1065.01 157.048C1064.95 153.974 1064.74 149.45 1064.38 143.477C1064.03 137.568 1063.74 133.385 1063.53 130.929C1062.06 130.954 1060.71 131.003 1059.5 131.077C1058.03 131.166 1056.75 131.275 1055.67 131.404C1056.78 144.994 1055.77 153.807 1052.65 157.842C1054.09 157.787 1056.22 157.675 1059.03 157.505C1060.02 157.446 1062.01 157.293 1065.01 157.048ZM1109.06 154.53L1110.93 154.37L1103.79 144.51L1110.69 134.476L1107.47 134.43C1107.36 133.763 1107.31 132.901 1107.31 131.843C1108.08 131.797 1109.15 131.748 1110.52 131.697C1111.9 131.614 1112.66 131.568 1112.82 131.558L1119.1 131.131C1119.2 131.83 1119.25 132.708 1119.25 133.766L1115.54 134.375L1109.44 141.668L1119.21 153.773L1121.52 153.73C1121.62 154.429 1121.68 155.339 1121.68 156.461C1118.87 156.567 1116.84 156.657 1115.59 156.733C1114.44 156.802 1113.13 156.897 1111.67 157.018C1110.23 157.105 1109.41 157.154 1109.22 157.166C1109.12 156.467 1109.06 155.588 1109.06 154.53ZM1103.05 144.94C1103.33 149.571 1103.54 152.828 1103.69 154.711L1106.24 154.701C1106.35 155.56 1106.41 156.438 1106.4 157.336C1103.49 157.48 1101.41 157.59 1100.16 157.665C1099.62 157.698 1098.46 157.784 1096.67 157.924C1094.88 158.032 1093.83 158.096 1093.51 158.115C1093.39 157.193 1093.33 156.314 1093.35 155.48L1096.02 155.174C1096.02 152.962 1095.88 149.668 1095.62 145.292C1095.36 140.948 1095.12 137.644 1094.92 135.38L1092.38 135.39C1092.26 134.531 1092.21 133.653 1092.22 132.755C1095.28 132.601 1097.44 132.487 1098.69 132.412C1099.23 132.379 1100.32 132.313 1101.95 132.215C1103.57 132.085 1104.55 132.01 1104.87 131.991C1104.99 132.913 1105.04 133.791 1105.02 134.626L1102.54 134.92C1102.59 136.713 1102.76 140.052 1103.05 144.94ZM1088.79 155.707L1090.81 155.633C1090.94 156.683 1090.99 157.562 1090.97 158.268C1090.78 158.28 1089.95 158.33 1088.48 158.419C1087.04 158.474 1085.74 158.536 1084.59 158.606L1078.51 159.069C1078.38 157.955 1078.33 157.045 1078.35 156.338L1080.64 156.103L1088.9 143.15L1081.95 136.404L1078.19 136.247C1078.07 135.197 1078.01 134.318 1078.03 133.612C1080.98 133.466 1083.07 133.356 1084.31 133.28C1084.47 133.271 1085.24 133.224 1086.61 133.141C1087.99 133.026 1089.05 132.946 1089.82 132.899C1089.95 133.95 1090 134.812 1089.98 135.487L1086.93 135.912L1094.83 145.051L1088.79 155.707ZM1128.54 168.309C1126.91 168.407 1125.05 168.119 1122.96 167.444C1123.06 165.995 1123.49 164.543 1124.23 163.087C1125.6 163.998 1126.85 164.42 1127.97 164.352C1129.31 164.271 1130.34 163.856 1131.06 163.107C1131.79 162.39 1132.4 161.328 1132.89 159.919L1133.51 158.151L1122.32 133.773L1119.77 133.735C1119.64 132.685 1119.59 131.806 1119.61 131.1C1120.28 131.059 1121.43 131.006 1123.06 130.939C1124.69 130.841 1125.6 130.786 1125.79 130.774L1132.21 130.339C1132.34 131.421 1132.39 132.315 1132.37 133.022L1129.79 133.226C1131.1 136.961 1133.31 142.374 1136.4 149.465L1140.6 133.15L1136.44 132.728C1136.32 131.677 1136.26 130.799 1136.28 130.092C1137.18 130.038 1138.15 129.996 1139.21 129.964C1140.3 129.898 1140.92 129.861 1141.08 129.851L1146.82 129.408C1146.95 130.458 1147 131.336 1146.98 132.043L1144.24 132.834L1136.58 159.601C1135.78 162.342 1134.77 164.438 1133.54 165.891C1132.35 167.374 1130.68 168.18 1128.54 168.309ZM1166.07 165.176C1161.09 165.445 1157.97 165.617 1156.73 165.692C1156.57 165.702 1156.22 165.723 1155.67 165.756C1155.16 165.819 1154.37 165.883 1153.28 165.949C1152.23 166.012 1150.98 166.088 1149.54 166.175C1149.46 165.282 1149.41 164.436 1149.39 163.635L1152.3 163.267C1152.31 162.305 1152.08 157.414 1151.61 148.594C1151.55 147.668 1151.47 146.326 1151.36 144.569C1151.29 142.811 1151.23 141.532 1151.18 140.733C1150.99 137.571 1150.8 134.97 1150.61 132.929L1147.34 132.117C1147.23 131.323 1147.18 130.556 1147.2 129.817L1158.07 128.247L1158.02 131.424C1158.86 130.412 1159.84 129.567 1160.95 128.891C1162.09 128.181 1163.17 127.795 1164.2 127.733C1167.17 127.553 1169.57 128.626 1171.41 130.952C1173.25 133.245 1174.27 136.085 1174.48 139.47C1174.74 143.815 1173.59 147.346 1171.03 150.066C1168.47 152.785 1165.21 154.264 1161.25 154.504C1160.83 154.529 1160.27 154.531 1159.56 154.509C1159.81 158.662 1159.99 161.376 1160.1 162.651L1165.91 162.541C1166.02 163.24 1166.07 164.118 1166.07 165.176ZM1158.98 144.061C1159 144.476 1159.05 145.436 1159.11 146.939C1159.19 148.408 1159.27 149.654 1159.33 150.676C1160.01 151.276 1160.79 151.549 1161.69 151.495C1163.51 151.385 1164.85 150.423 1165.7 148.608C1166.55 146.794 1166.9 144.545 1166.73 141.862C1166.56 139.019 1165.97 136.73 1164.97 134.995C1163.97 133.229 1162.56 132.4 1160.73 132.51C1159.9 132.561 1159.1 132.785 1158.32 133.185L1158.98 144.061ZM1188.41 129.059C1187.16 129.135 1186.21 130.026 1185.54 131.733C1184.9 133.407 1184.66 135.489 1184.81 137.98L1192.32 137.239C1192.14 131.639 1190.83 128.913 1188.41 129.059ZM1193.77 148.643C1195.63 148.531 1197.54 147.903 1199.53 146.757L1200.48 149.056C1200.11 149.302 1199.62 149.621 1199 150.011C1198.38 150.401 1197.2 150.937 1195.44 151.62C1193.72 152.301 1192.11 152.687 1190.61 152.778C1186.68 153.015 1183.5 152.117 1181.07 150.084C1178.64 148.019 1177.31 145.182 1177.09 141.572C1176.82 137.132 1177.78 133.532 1179.95 130.772C1182.12 127.98 1185.11 126.469 1188.91 126.24C1190.99 126.114 1192.8 126.422 1194.35 127.161C1195.9 127.869 1197.08 128.872 1197.9 130.169C1198.75 131.464 1199.37 132.805 1199.78 134.191C1200.21 135.543 1200.47 136.954 1200.56 138.423L1200.62 139.334L1185 140.277C1185.41 142.881 1186.34 144.973 1187.78 146.553C1189.25 148.099 1191.25 148.796 1193.77 148.643ZM1219.59 147.853L1221.46 147.692L1214.4 138.309L1221.9 127.854L1218.19 127.741C1218.08 127.074 1218.03 126.212 1218.03 125.154C1218.8 125.107 1219.9 125.057 1221.34 125.002C1222.81 124.913 1223.62 124.864 1223.78 124.854L1229.82 124.442C1229.92 125.141 1229.98 126.019 1229.98 127.077L1226.03 127.796L1220.12 135.078L1230.32 147.061L1232.96 146.997C1233.07 147.696 1233.12 148.607 1233.12 149.728C1229.93 149.857 1227.7 149.96 1226.46 150.035C1225.31 150.104 1223.95 150.202 1222.39 150.329C1220.82 150.423 1219.95 150.476 1219.75 150.488C1219.65 149.789 1219.59 148.911 1219.59 147.853ZM1213.77 138.25C1214.05 142.882 1214.27 146.139 1214.41 148.022L1216.96 148.012C1217.07 148.871 1217.13 149.749 1217.12 150.647C1214.15 150.795 1212.04 150.906 1210.79 150.981C1210.25 151.014 1208.99 151.106 1207.01 151.258C1205.03 151.378 1203.88 151.447 1203.56 151.466C1203.44 150.544 1203.39 149.666 1203.4 148.831L1206.55 148.496C1206.55 146.285 1206.41 142.991 1206.15 138.615C1205.89 134.271 1205.65 130.967 1205.45 128.703L1202.19 128.756C1202.07 127.897 1202.02 127.019 1202.03 126.121C1205.64 125.934 1208.07 125.804 1209.31 125.728C1209.86 125.696 1210.96 125.629 1212.62 125.529C1214.28 125.396 1215.27 125.321 1215.59 125.301C1215.71 126.224 1215.76 127.102 1215.75 127.937L1213.26 128.231C1213.31 130.023 1213.48 133.363 1213.77 138.25Z" fill="black"/>
</g>
<g clip-path="url(#clip3_601_30)">
<rect width="15.6443" height="11.7356" transform="matrix(-0.991813 -0.127696 -0.127643 0.99182 679.861 511.705)" fill="white"/>
<path d="M670.992 538.673L714.048 515.977L718.661 475.718L675.597 498.399" fill="white"/>
<path d="M670.992 538.673L714.048 515.977L718.661 475.718L675.597 498.399" stroke="#231F20" stroke-width="3" stroke-miterlimit="10"/>
<path d="M676.209 498.139C674.441 502.048 671.812 509.007 670.761 517.403C669.53 527.2 670.285 534.106 670.992 538.673L499.497 516.593C498.79 512.026 498.035 505.12 499.266 495.323C500.318 486.913 502.945 479.968 504.713 476.059L676.209 498.139Z" fill="white" stroke="#231F20" stroke-width="3" stroke-miterlimit="10"/>
<path d="M504.556 476.039L547.622 453.344L718.661 475.718" fill="white"/>
<path d="M504.556 476.039L547.622 453.344L718.661 475.718" stroke="#231F20" stroke-width="3" stroke-miterlimit="10"/>
</g>
<g clip-path="url(#clip4_601_30)">
<rect width="19.3564" height="14.5203" transform="matrix(0.996091 -0.0883311 0.0882943 0.996094 115.383 414.339)" fill="white"/>
<path d="M125.031 448.114L72.911 417.946L69.1786 367.947L121.309 398.097" fill="white"/>
<path d="M125.031 448.114L72.911 417.946L69.1786 367.947L121.309 398.097" stroke="#231F20" stroke-width="3" stroke-miterlimit="10"/>
<path d="M120.565 397.746C122.559 402.665 125.469 411.397 126.357 421.829C127.399 434.001 126.127 442.502 125.029 448.114L338.134 429.216C339.232 423.605 340.503 415.104 339.461 402.931C338.572 392.483 335.664 383.768 333.669 378.848L120.565 397.746Z" fill="white" stroke="#231F20" stroke-width="3" stroke-miterlimit="10"/>
<path d="M333.864 378.83L281.732 348.664L69.1777 367.947" fill="white"/>
<path d="M333.864 378.83L281.732 348.664L69.1777 367.947" stroke="#231F20" stroke-width="3" stroke-miterlimit="10"/>
</g>
<g clip-path="url(#clip5_601_30)">
<rect width="19.3564" height="14.5203" transform="matrix(0.996145 -0.0877187 0.0876821 0.996148 110.984 361.24)" fill="white"/>
<path d="M120.611 395.021L68.5103 364.821L64.8086 314.82L116.92 345.002" fill="white"/>
<path d="M120.611 395.021L68.5103 364.821L64.8086 314.82L116.92 345.002" stroke="#231F20" stroke-width="3" stroke-miterlimit="10"/>
<path d="M116.178 344.65C118.169 349.57 121.073 358.304 121.955 368.736C122.989 380.91 121.713 389.41 120.611 395.021L333.727 376.254C334.829 370.643 336.105 362.143 335.071 349.97C334.188 339.521 331.285 330.804 329.294 325.883L116.178 344.65Z" fill="white" stroke="#231F20" stroke-width="3" stroke-miterlimit="10"/>
<path d="M329.488 325.866L277.375 295.667L64.808 314.819" fill="white"/>
<path d="M329.488 325.866L277.375 295.667L64.808 314.819" stroke="#231F20" stroke-width="3" stroke-miterlimit="10"/>
</g>
<g clip-path="url(#clip6_601_30)">
<rect width="19.3565" height="14.5203" transform="matrix(0.995253 -0.0973228 0.0972823 0.995257 79.0703 306.341)" fill="white"/>
<path d="M89.0206 340.028L36.6308 310.332L32.4472 260.368L84.8476 290.047" fill="white"/>
<path d="M89.0206 340.028L36.6308 310.332L32.4472 260.368L84.8476 290.047" stroke="#231F20" stroke-width="3" stroke-miterlimit="10"/>
<path d="M84.1023 289.702C86.1413 294.603 89.1294 303.308 90.1114 313.731C91.2634 325.894 90.0688 334.406 89.0215 340.028L301.947 319.206C302.994 313.585 304.188 305.073 303.036 292.91C302.053 282.47 299.066 273.782 297.027 268.88L84.1023 289.702Z" fill="white" stroke="#231F20" stroke-width="3" stroke-miterlimit="10"/>
<path d="M297.222 268.861L244.82 239.166L32.4482 260.368" fill="white"/>
<path d="M297.222 268.861L244.82 239.166L32.4482 260.368" stroke="#231F20" stroke-width="3" stroke-miterlimit="10"/>
</g>
<defs>
<clipPath id="clip0_601_30">
<rect width="196.531" height="605.673" fill="white" transform="matrix(-0.0043702 -0.99999 0.99999 -0.00437204 742.459 466.618)"/>
</clipPath>
<clipPath id="clip1_601_30">
<rect width="196.531" height="605.673" fill="white" transform="translate(742.023 339.677) rotate(-90)"/>
</clipPath>
<clipPath id="clip2_601_30">
<rect width="187.148" height="576.758" fill="white" transform="matrix(-0.0651064 -0.997878 0.997877 -0.0651336 716.168 224.454)"/>
</clipPath>
<clipPath id="clip3_601_30">
<rect width="70.3019" height="216.66" fill="white" transform="matrix(0.127643 -0.99182 -0.991813 -0.127696 710.887 544.487)"/>
</clipPath>
<clipPath id="clip4_601_30">
<rect width="86.9841" height="268.071" fill="white" transform="matrix(-0.0882944 -0.996094 0.996091 -0.0883312 75.4219 453.348)"/>
</clipPath>
<clipPath id="clip5_601_30">
<rect width="86.9841" height="268.071" fill="white" transform="matrix(-0.0876822 -0.996148 0.996145 -0.0877187 71 400.225)"/>
</clipPath>
<clipPath id="clip6_601_30">
<rect width="86.984" height="268.071" fill="white" transform="matrix(-0.0972824 -0.995257 0.995253 -0.0973228 39.4629 345.71)"/>
</clipPath>
</defs>
</svg>
