<svg width="282" height="83" viewBox="0 0 282 83" fill="none" xmlns="http://www.w3.org/2000/svg">
<path d="M5.83398 0.344727H13.6133V82.9999H5.83398V0.344727Z" fill="#777777"/>
<path d="M70.0137 0.344727H76.8206V82.9999H70.0137V0.344727Z" fill="#777777"/>
<path d="M123.496 0.344727H131.275V82.9999H123.496V0.344727Z" fill="#777777"/>
<path d="M193.51 0.344727H201.289V82.9999H193.51V0.344727Z" fill="#777777"/>
<path d="M250.883 0.344727H258.662V82.9999H250.883V0.344727Z" fill="#777777"/>
<path d="M28.1992 0.344727H35.0061V82.9999H28.1992V0.344727Z" fill="#777777"/>
<path d="M84.5996 0.344727H92.3789V82.9999H84.5996V0.344727Z" fill="#777777"/>
<path d="M142.945 0.344727H150.725V82.9999H142.945V0.344727Z" fill="#777777"/>
<path d="M213.932 0.344727H221.711V82.9999H213.932V0.344727Z" fill="#777777"/>
<path d="M273.248 0.344727H282V82.9999H273.248V0.344727Z" fill="#777777"/>
<path d="M43.7578 0.344727H51.5371V82.9999H43.7578V0.344727Z" fill="#777777"/>
<path d="M108.91 0.344727H115.717V82.9999H108.91V0.344727Z" fill="#777777"/>
<path d="M162.393 0.344727H170.172V82.9999H162.393V0.344727Z" fill="#777777"/>
<path d="M230.463 0.344727H237.27V82.9999H230.463V0.344727Z" fill="#777777"/>
<path d="M265.877 59.6619C261.276 59.6619 257.617 58.1592 254.898 55.1536C252.221 52.1481 250.883 48.2113 250.883 43.3432C250.883 38.3057 252.368 34.0937 255.337 30.7072C258.307 27.3207 262.092 25.6274 266.692 25.6274C271.377 25.6274 275.099 27.109 277.859 30.0722C280.62 33.0354 282 36.9511 282 41.8192C282 46.9837 280.578 51.2591 277.734 54.6456C274.89 57.9898 270.938 59.6619 265.877 59.6619ZM266.19 56.2966C271.586 56.2966 274.283 51.8729 274.283 43.0257C274.283 38.9618 273.593 35.6388 272.213 33.0566C270.833 30.4321 268.888 29.1198 266.379 29.1198C261.192 29.1198 258.599 33.4799 258.599 42.2002C258.599 45.883 259.269 49.1637 260.607 52.0423C261.945 54.8785 263.807 56.2966 266.19 56.2966Z" fill="black"/>
<path d="M247.965 26.4446L247.238 32.7301C245.743 32.4368 244.51 32.2901 243.541 32.2901C241.278 32.2901 239.136 32.7301 237.116 33.6101V43.5413C237.116 48.6536 237.136 52.6973 237.176 55.6724L243.783 55.9239C243.864 56.72 243.884 57.6419 243.844 58.6895C243.722 58.6895 242.288 58.6895 239.54 58.6895C236.792 58.6476 234.833 58.6267 233.661 58.6267C233.176 58.6267 231.883 58.6476 229.782 58.6895C227.721 58.6895 226.408 58.6895 225.842 58.6895C225.802 57.7257 225.802 56.8248 225.842 55.9867L229.721 55.7353C229.842 52.9696 229.903 48.9259 229.903 43.6042C229.903 37.3605 229.883 33.1073 229.842 30.8445L225.66 29.5245C225.579 28.6445 225.579 27.8064 225.66 27.0103C229.297 26.5493 232.651 26.2141 235.722 26.0046C236.085 26.7169 236.409 27.8064 236.691 29.2731C236.974 30.7397 237.116 31.6825 237.116 32.1016V32.1644C240.146 27.8064 242.793 25.6274 245.056 25.6274C246.228 25.6274 247.197 25.8998 247.965 26.4446Z" fill="black"/>
<path d="M208.499 74.2481C202.641 74.2057 198.878 74.1845 197.211 74.1845C196.826 74.1845 195.65 74.1845 193.683 74.1845C191.716 74.2269 190.049 74.2481 188.681 74.2481C188.638 73.2723 188.638 72.3602 188.681 71.5116L192.785 71.2571C192.913 69.4752 193.02 61.9233 193.106 48.6014C193.106 39.0554 193.063 33.1369 192.978 30.8459L188.681 29.5095C188.638 28.6185 188.638 27.77 188.681 26.9639C193.298 26.4123 197.317 26.0729 200.738 25.9456L200.546 30.2095C203.325 27.1548 206.275 25.6274 209.396 25.6274C213.159 25.6274 216.152 27.1972 218.375 30.3368C220.599 33.4339 221.711 37.125 221.711 41.4101C221.711 47.0952 220.022 51.5712 216.644 54.838C213.266 58.1049 209.097 59.7383 204.137 59.7383C203.239 59.7383 202.064 59.6534 200.61 59.4837C200.61 65.4234 200.653 69.3055 200.738 71.1298L208.499 71.448C208.541 72.4238 208.541 73.3572 208.499 74.2481ZM200.674 46.3103C200.674 47.2861 200.653 48.7286 200.61 50.6378C200.61 52.5046 200.61 53.841 200.61 54.6471C201.08 55.1562 201.743 55.6017 202.598 55.9835C203.496 56.3654 204.287 56.5563 204.971 56.5563C207.622 56.5563 209.76 55.3896 211.385 53.0561C213.009 50.7227 213.822 47.6892 213.822 43.9557C213.822 35.2158 211.064 30.8459 205.548 30.8459C204.052 30.8459 202.427 31.2914 200.674 32.1823V46.3103Z" fill="black"/>
<path d="M157.977 58.6898C157.935 57.7211 157.935 56.8156 157.977 55.9732L162.054 55.7205C162.224 52.9408 162.309 48.5606 162.309 42.5799C162.309 36.9362 162.267 32.9772 162.182 30.7028L157.595 29.3762C157.51 28.4917 157.51 27.6493 157.595 26.8491C162.097 26.3016 166.195 25.9647 169.89 25.8383C169.847 29.3762 169.826 34.9356 169.826 42.5167C169.826 48.371 169.868 52.7934 169.953 55.7837L174.03 55.9732C174.073 56.8156 174.073 57.7211 174.03 58.6898C173.733 58.6898 172.608 58.6898 170.654 58.6898C168.701 58.6477 167.214 58.6266 166.195 58.6266C165.685 58.6266 164.348 58.6477 162.182 58.6898C160.016 58.6898 158.614 58.6898 157.977 58.6898ZM165.558 18.6362C164.114 18.6362 162.946 18.2151 162.054 17.3727C161.205 16.5304 160.78 15.4564 160.78 14.1508C160.78 12.8451 161.29 11.6869 162.309 10.6761C163.371 9.62315 164.645 9.09668 166.131 9.09668C167.745 9.09668 168.934 9.53891 169.699 10.4234C170.506 11.3078 170.909 12.445 170.909 13.8349C170.909 15.1405 170.399 16.2777 169.38 17.2464C168.403 18.173 167.129 18.6362 165.558 18.6362Z" fill="black"/>
<path d="M138.836 58.6895C138.794 57.7239 138.794 56.8212 138.836 55.9816L142.537 55.7297C142.663 52.8748 142.726 47.4799 142.726 39.545C142.684 36.5222 142.265 34.339 141.471 32.9956C140.676 31.6521 139.108 30.9803 136.766 30.9803C134.758 30.9803 132.75 31.4212 130.743 32.3028V43.1346C130.743 48.5925 130.785 52.8118 130.868 55.7926L134.883 55.9816C134.925 56.8212 134.925 57.7239 134.883 58.6895C134.591 58.6895 133.482 58.6895 131.558 58.6895C129.635 58.6475 128.171 58.6265 127.167 58.6265C126.665 58.6265 125.348 58.6475 123.215 58.6895C121.081 58.6895 119.701 58.6895 119.074 58.6895C119.032 57.7239 119.032 56.8212 119.074 55.9816L123.089 55.7297C123.256 52.9588 123.34 48.7814 123.34 43.1976C123.34 37.1939 123.298 33.0585 123.215 30.7914L118.698 29.4689C118.614 28.5873 118.614 27.7476 118.698 26.9499C123.131 26.4041 127.167 26.0683 130.806 25.9423C130.764 26.9079 130.743 28.4403 130.743 30.5395C131.914 29.322 133.399 28.2094 135.197 27.2018C137.037 26.1522 138.878 25.6274 140.718 25.6274C143.646 25.6274 145.967 26.5931 147.682 28.5243C149.397 30.4556 150.254 33.2475 150.254 36.9C150.254 38.3275 150.233 41.4343 150.191 46.2204C150.149 50.9645 150.128 54.1343 150.128 55.7297L154.583 55.9186C154.625 56.8002 154.625 57.7239 154.583 58.6895C151.111 58.6475 148.56 58.6265 146.929 58.6265C146.385 58.6265 145.047 58.6475 142.914 58.6895C140.781 58.6895 139.421 58.6895 138.836 58.6895Z" fill="black"/>
<path d="M99.0895 59.6619C94.3451 59.6619 90.5711 58.1592 87.7676 55.1536C85.0072 52.1481 83.627 48.2113 83.627 43.3432C83.627 38.3057 85.1581 34.0937 88.2204 30.7072C91.2828 27.3207 95.1861 25.6274 99.9306 25.6274C104.761 25.6274 108.6 27.109 111.447 30.0722C114.293 33.0354 115.717 36.9511 115.717 41.8192C115.717 46.9837 114.25 51.2591 111.317 54.6456C108.384 57.9898 104.308 59.6619 99.0895 59.6619ZM99.413 56.2966C104.977 56.2966 107.759 51.8729 107.759 43.0257C107.759 38.9618 107.047 35.6388 105.624 33.0566C104.201 30.4321 102.195 29.1198 99.6071 29.1198C94.2588 29.1198 91.5847 33.4799 91.5847 42.2002C91.5847 45.883 92.2748 49.1637 93.655 52.0423C95.0352 54.8785 96.9545 56.2966 99.413 56.2966Z" fill="black"/>
<path d="M64.6256 58.6898C64.5831 57.7211 64.5831 56.8156 64.6256 55.9732L68.7026 55.7205C68.8725 52.9408 68.9574 48.5606 68.9574 42.5799C68.9574 36.9362 68.915 32.9772 68.83 30.7028L64.2434 29.3762C64.1585 28.4917 64.1585 27.6493 64.2434 26.8491C68.7451 26.3016 72.8434 25.9647 76.5381 25.8383C76.4957 29.3762 76.4744 34.9356 76.4744 42.5167C76.4744 48.371 76.5169 52.7934 76.6018 55.7837L80.6789 55.9732C80.7213 56.8156 80.7213 57.7211 80.6789 58.6898C80.3816 58.6898 79.2562 58.6898 77.3026 58.6898C75.349 58.6477 73.8626 58.6266 72.8433 58.6266C72.3337 58.6266 70.996 58.6477 68.83 58.6898C66.6641 58.6898 65.2626 58.6898 64.6256 58.6898ZM72.2063 18.6362C70.7624 18.6362 69.5945 18.2151 68.7026 17.3727C67.8533 16.5304 67.4286 15.4564 67.4286 14.1508C67.4286 12.8451 67.9382 11.6869 68.9574 10.6761C70.0192 9.62315 71.2932 9.09668 72.7796 9.09668C74.3935 9.09668 75.5826 9.53891 76.347 10.4234C77.1539 11.3078 77.5574 12.445 77.5574 13.8349C77.5574 15.1405 77.0478 16.2777 76.0285 17.2464C75.0517 18.173 73.7777 18.6362 72.2063 18.6362Z" fill="black"/>
<path d="M62.2344 26.4446L61.4755 32.7301C59.9154 32.4368 58.6294 32.2901 57.6174 32.2901C55.2562 32.2901 53.0215 32.7301 50.9133 33.6101V43.5413C50.9133 48.6536 50.9344 52.6973 50.9766 55.6724L57.8704 55.9239C57.9547 56.72 57.9758 57.6419 57.9337 58.6895C57.8072 58.6895 56.3103 58.6895 53.4432 58.6895C50.576 58.6476 48.531 58.6267 47.3083 58.6267C46.8023 58.6267 45.453 58.6476 43.2605 58.6895C41.1101 58.6895 39.7398 58.6895 39.1495 58.6895C39.1073 57.7257 39.1073 56.8248 39.1495 55.9867L43.1972 55.7353C43.3237 52.9696 43.387 48.9259 43.387 43.6042C43.387 37.3605 43.3659 33.1073 43.3237 30.8445L38.9597 29.5245C38.8754 28.6445 38.8754 27.8064 38.9597 27.0103C42.7545 26.5493 46.2542 26.2141 49.4586 26.0046C49.8381 26.7169 50.1754 27.8064 50.4706 29.2731C50.7657 30.7397 50.9133 31.6825 50.9133 32.1016V32.1644C54.0756 27.8064 56.8374 25.6274 59.1986 25.6274C60.4214 25.6274 61.4333 25.8998 62.2344 26.4446Z" fill="black"/>
<path d="M9.63778 16.9386H18.4672C22.6954 16.9386 26.0531 17.7523 28.5403 19.3798C31.0689 21.0073 32.3332 23.4485 32.3332 26.7035C32.3332 29.0821 31.4834 31.0852 29.7838 32.7126C28.1257 34.3401 26.3847 35.446 24.5608 36.0302C25.5971 36.1971 26.6334 36.5101 27.6697 36.9691C28.7475 37.3864 29.8667 37.9915 31.0274 38.7844C32.2296 39.5356 33.183 40.5997 33.8877 41.9768C34.6338 43.3121 35.0069 44.8144 35.0069 46.4836C35.0069 50.3646 33.556 53.3692 30.6544 55.4974C27.7941 57.6256 23.6903 58.6898 18.3429 58.6898C17.9283 58.6898 16.7469 58.6689 14.7987 58.6272C12.8918 58.5854 11.0679 58.5437 9.32688 58.502C8.8709 58.502 7.42005 58.5229 4.97434 58.5646C2.52862 58.5646 0.891235 58.5646 0.0621792 58.5646C-0.0207264 57.5213 -0.0207264 56.5615 0.0621792 55.6852L5.53395 55.4974C5.65831 52.5763 5.72049 46.5254 5.72049 37.3447V28.6439C5.72049 23.9701 5.69976 21.0907 5.65831 20.0057C5.40959 20.0057 4.4769 19.9849 2.86024 19.9432C1.24358 19.9014 0.352349 19.8597 0.186538 19.818C0.103632 18.8999 0.103632 17.9192 0.186538 16.876C1.18141 16.876 2.9017 16.8968 5.34741 16.9386C7.79313 16.9386 9.22325 16.9386 9.63778 16.9386ZM17.5967 55.3096C20.7057 55.3096 23.027 54.6002 24.5608 53.1814C26.136 51.7208 26.9236 49.7595 26.9236 47.2974C26.9236 41.4551 23.6281 38.534 17.0371 38.534H14.9852C14.9437 38.534 14.6536 38.5549 14.1147 38.5966C13.6172 38.5966 13.3478 38.5966 13.3064 38.5966C13.3064 47.1513 13.3478 52.6806 13.4307 55.1844C14.3427 55.2679 15.7313 55.3096 17.5967 55.3096ZM16.5397 20.2561H13.4929C13.3685 22.8851 13.3064 27.9345 13.3064 35.4042C13.3893 35.4042 13.6587 35.4251 14.1147 35.4668C14.5707 35.4668 14.8401 35.4668 14.923 35.4668H16.7884C18.9854 35.4668 20.7886 34.8409 22.198 33.589C23.6488 32.2953 24.3743 30.4175 24.3743 27.9554C24.3743 22.8225 21.7627 20.2561 16.5397 20.2561Z" fill="black"/>
</svg>
