<svg width="511" height="351" viewBox="0 0 511 351" fill="none" xmlns="http://www.w3.org/2000/svg">
<g clip-path="url(#clip0_603_4)">
<path d="M13.1081 238.031L26.5228 284.507C29.6602 295.394 34.0648 305.87 39.639 315.717C47.5978 312.208 55.5641 308.673 63.523 305.163C84.5368 298.774 104.636 286.989 125.188 277.914C151.882 266.119 176.816 249.069 205.263 242.513C208.763 241.698 210.084 241.972 264.809 216.195C287.444 205.538 309.208 192.06 333.447 185.862C357.687 179.665 380.773 157.238 407.565 149.477C431.174 142.655 459.644 130.072 484.473 119.093C480.119 111.901 475.764 104.709 471.419 97.5332" fill="white"/>
<path d="M13.1081 238.031L26.5228 284.507C29.6602 295.394 34.0648 305.87 39.639 315.717C47.5978 312.208 55.5641 308.673 63.523 305.163C84.5368 298.774 104.636 286.989 125.188 277.914C151.882 266.119 176.816 249.069 205.263 242.513C208.763 241.698 210.084 241.972 264.809 216.195C287.444 205.538 309.208 192.06 333.447 185.862C357.687 179.665 380.773 157.238 407.565 149.477C431.174 142.655 459.644 130.072 484.473 119.093C480.119 111.901 475.764 104.709 471.419 97.5332" stroke="#231F20" stroke-width="3" stroke-miterlimit="10"/>
<path d="M14.8848 240.554C18.8706 248.384 18.9551 259.594 22.9496 267.441C27.2777 275.947 30.3988 284.662 38.4545 290.323" fill="white"/>
<path d="M14.8848 240.554C18.8706 248.384 18.9551 259.594 22.9496 267.441C27.2777 275.947 30.3988 284.662 38.4545 290.323" stroke="#231F20" stroke-width="3" stroke-miterlimit="10"/>
<path d="M13.4688 237.921L447.403 25.4519C451.121 23.639 455.529 23.8858 458.95 26.1934C466.247 31.0675 473.597 39.5811 476.931 45.772C481.856 54.9202 487.168 69.729 488.03 83.4335C488.27 87.2655 486.1 90.8235 482.597 92.374C335.155 158.052 185.634 224.347 38.182 290.009C38.0358 290.088 37.8659 289.928 37.9183 289.753C41.4316 279.037 33.5028 264.778 32.3404 262.386C30.6506 258.936 21.3744 241.357 14.8861 240.554L13.4688 237.921Z" fill="white" stroke="#231F20" stroke-width="3" stroke-miterlimit="10"/>
<path d="M204.112 144.519C207.324 142.936 211.137 143.167 214.095 145.159C220.406 149.369 226.764 156.74 229.642 162.086C233.903 169.999 238.494 182.807 239.233 194.649C239.441 197.954 237.561 201.041 234.531 202.379" fill="white"/>
<path d="M204.112 144.519C207.324 142.936 211.137 143.167 214.095 145.159C220.406 149.369 226.764 156.74 229.642 162.086C233.903 169.999 238.494 182.807 239.233 194.649C239.441 197.954 237.561 201.041 234.531 202.379" stroke="#231F20" stroke-width="3" stroke-miterlimit="10"/>
<path d="M268.529 112.883C271.678 111.337 275.462 111.593 278.42 113.623C284.693 117.918 292.869 127.382 295.768 132.766C300.053 140.725 304.722 153.599 305.561 165.471C305.79 168.777 303.97 171.857 300.986 173.164" stroke="#231F20" stroke-width="3" stroke-miterlimit="10"/>
</g>
<defs>
<clipPath id="clip0_603_4">
<rect width="514.865" height="120.619" fill="white" transform="translate(0 244.083) rotate(-28.2989)"/>
</clipPath>
</defs>
</svg>
