<svg width="655" height="826" viewBox="0 0 655 826" fill="none" xmlns="http://www.w3.org/2000/svg">
<path d="M26.2545 12.0425C115.781 10.7881 205.279 9.50579 294.805 8.25136C384.33 6.99693 472.909 5.7425 561.961 4.48807L599.533 3.95842L617.622 3.70754C623.698 3.62391 629.997 3.03851 636.046 3.59603C646.721 4.59958 649.898 17.9523 649.285 26.9284C648.672 35.9046 644.407 44.3232 637.3 49.8705C635.544 51.2365 638.025 53.6896 639.753 52.3237C651.626 43.0687 656.114 25.7576 650.344 11.8474C649.006 8.61375 647.167 5.29648 644.407 3.06638C641.063 0.362391 636.77 0 632.645 0C621.134 0 609.623 0.334515 598.139 0.473896C551.76 1.11505 505.38 1.78408 459 2.42523L182.117 6.3279C130.163 7.05268 78.2365 7.80534 26.2824 8.53012C24.0526 8.558 24.0248 12.0425 26.2824 12.0146L26.2545 12.0425Z" fill="#231F20"/>
<path d="M11.455 95.3645C93.5112 90.1517 175.54 84.9388 257.596 79.726C339.652 74.5131 421.68 69.3003 503.736 64.0874C526.452 62.6379 549.168 61.1883 571.884 59.7666C594.6 58.3449 616.842 56.9511 639.001 52.7976C641.203 52.3794 640.283 49.0343 638.081 49.4245C618.041 53.1878 597.722 54.6374 577.403 55.9197C557.084 57.202 536.654 58.5122 516.279 59.7945C475.474 62.387 434.697 64.9795 393.891 67.572C312.309 72.7569 230.727 77.9419 149.144 83.1269C103.267 86.0539 57.3608 88.953 11.4829 91.88C9.2531 92.0194 9.2531 95.5039 11.4829 95.3645H11.455Z" fill="#231F20"/>
<path d="M23.579 11.1783C30.5749 23.3324 33.2785 37.3262 31.6062 51.2643C30.6307 59.5157 28.2336 67.6277 24.8611 75.21C21.9066 81.8445 16.9175 86.8901 12.7645 92.772C11.4545 94.6118 14.4926 96.3401 15.7747 94.5282C20.3458 88.0609 25.4743 82.7087 28.596 75.3215C31.7177 67.9343 34.1426 59.5993 35.0902 51.2922C36.7904 36.7687 33.8638 22.1616 26.5892 9.45001C25.4743 7.49868 22.4641 9.25488 23.579 11.2062V11.1783Z" fill="#231F20"/>
<path d="M10.2002 735.625C93.427 741.897 176.96 742.538 260.382 740.42C343.804 738.301 426.501 733.534 509.477 729.046C533.002 727.764 556.526 726.51 580.05 725.339C591.589 724.781 603.101 724.224 614.64 723.694C620.632 723.415 626.625 723.164 632.617 722.914C635.377 722.802 638.164 722.691 640.923 722.579C642.206 722.523 643.599 722.3 644.881 722.579C645.271 722.663 648.839 723.889 648.059 724.698C646.498 726.315 648.951 728.768 650.511 727.151C652.24 725.367 652.044 723.22 650.289 721.492C647.724 719.011 644.268 718.955 640.923 719.095C630.304 719.541 619.713 719.987 609.093 720.488C587.409 721.492 565.724 722.579 544.067 723.722C500.698 726.008 457.328 728.461 413.959 730.719C327.806 735.151 241.541 738.692 155.248 737.967C106.834 737.549 58.4472 735.792 10.1723 732.169C7.94255 732.001 7.94255 735.486 10.1723 735.653L10.2002 735.625Z" fill="#231F20"/>
<path d="M7.52491 732.252C3.56704 736.908 1.95044 743.124 1.03065 749.062C-0.112113 756.505 -0.223603 764.087 0.278099 771.586C0.751929 778.527 1.67172 785.524 3.53916 792.214C4.23597 794.723 5.07214 797.26 6.3264 799.546C6.77235 800.354 7.24618 801.162 7.85938 801.859C8.16597 802.222 12.8764 805.929 12.4026 803.588L11.5943 805.567L11.9287 805.4C13.9355 804.424 12.1796 801.413 10.1728 802.389L9.83831 802.556C9.11363 802.919 8.89065 803.811 9.03001 804.535C9.53172 807.211 13.5453 807.323 13.9634 804.535C14.3815 801.748 10.9811 800.577 9.72682 798.542C6.46576 793.246 5.46235 786.137 4.59831 780.116C3.42767 771.781 3.09321 763.223 3.81789 754.804C4.37533 748.142 5.43448 740.03 9.9498 734.761C11.3992 733.061 8.9464 730.58 7.49704 732.308L7.52491 732.252Z" fill="#231F20"/>
<path d="M14.4087 806.124C96.4927 807.964 178.577 809.804 260.661 811.644C342.745 813.484 424.271 814.682 506.021 817.47C551.425 819.003 596.829 821.428 642.038 825.972C644.268 826.195 644.24 822.711 642.038 822.488C561.069 814.348 479.654 813.066 398.378 811.254C316.294 809.414 234.21 807.574 152.126 805.734C106.22 804.703 60.3144 803.671 14.4087 802.64C12.1789 802.584 12.1789 806.069 14.4087 806.124Z" fill="#231F20"/>
<path d="M642.792 722.384C635.518 737.159 631.365 753.048 629.943 769.439C629.191 778.359 629.191 787.336 629.664 796.284C630.027 802.668 630.361 808.549 632.702 814.515C634.096 818.083 636.187 824.244 640.172 825.749C643.796 827.143 645.914 822.265 647.447 819.839C650.151 815.602 652.13 812.062 652.882 807.044C654.081 799.155 653.941 791.127 654.359 783.182C655.446 762.721 655.418 742.929 651.21 722.746C650.764 720.544 647.391 721.492 647.837 723.666C651.154 739.5 652.185 755.445 651.516 771.586C651.182 779.279 650.736 786.973 650.401 794.667C650.151 800.131 650.401 807.016 648.032 811.978C647.224 813.651 646.165 815.24 645.189 816.829C644.13 818.557 643.043 820.871 641.538 822.265C640.953 822.822 641.482 822.85 640.73 822.014C640.144 821.373 639.643 820.703 639.169 819.979C637.747 817.776 636.66 815.295 635.768 812.842C633.678 807.239 633.427 801.608 633.093 795.643C632.702 788.06 632.647 780.45 633.148 772.896C634.235 755.947 638.277 739.416 645.775 724.14C646.75 722.133 643.768 720.377 642.764 722.384H642.792Z" fill="#231F20"/>
<path d="M635.74 51.0971C633.761 75.0985 634.235 99.1557 635.712 123.185C636.465 135.283 637.58 147.354 638.444 159.452C638.862 165.25 639.085 171.104 638.388 176.875C637.747 182.31 636.102 187.523 634.263 192.653C631.002 201.74 626.877 210.939 626.877 220.807C626.877 231.512 632.786 240.739 634.792 251.025C637.078 262.65 635.015 274.887 633.901 286.567C632.786 298.248 631.559 310.848 630.417 323.002C629.274 335.156 628.047 346.669 627.016 358.516C625.985 370.363 626.291 381.068 630.305 391.995C632.2 397.18 634.43 402.226 635.74 407.606C637.05 412.986 637.524 418.032 637.552 423.3C637.552 434.061 635.461 444.653 633.148 455.107C630.835 465.561 628.242 475.596 626.737 486.022C625.232 496.448 625.204 506.65 626.682 517.02C628.27 528.31 631.113 539.349 632.535 550.667C633.956 561.984 633.12 573.581 631.058 585.01C627.239 606.112 621.609 626.462 624.954 648.066C627.88 666.827 636.102 685.392 634.068 704.655C633.51 709.896 632.117 714.997 630.026 719.82C629.134 721.854 632.145 723.639 633.037 721.576C640.785 703.679 637.19 685.615 632.674 667.384C630.221 657.488 627.797 647.509 627.267 637.278C626.682 625.877 628.633 614.587 630.89 603.464C633.037 592.927 635.461 582.39 636.409 571.63C637.357 560.869 636.158 549.691 634.151 538.819C632.145 527.948 629.357 516.072 629.023 504.476C628.688 493.548 630.584 482.704 632.897 472.056C637.217 452.18 643.489 431.775 640.088 411.258C638.193 399.856 631.838 389.793 630.417 378.28C628.995 366.767 630.89 354.558 632.005 342.905C634.291 318.932 636.994 294.986 638.862 270.985C639.308 265.186 639.503 259.36 638.75 253.562C638.081 248.266 636.409 243.304 634.569 238.314C632.618 233.017 630.584 227.637 630.417 221.923C630.249 216.738 631.392 211.664 632.925 206.758C635.991 197.001 640.534 187.774 641.816 177.516C643.294 165.668 641.454 153.542 640.534 141.723C638.667 117.526 637.329 93.2738 638.193 68.9937C638.416 63.0282 638.778 57.0348 639.252 51.0971C639.447 48.867 635.963 48.867 635.768 51.0971H635.74Z" fill="#231F20"/>
<path d="M19.4811 96.5354C18.4498 117.443 23.3832 137.987 23.3553 158.867C23.3553 164.916 22.993 170.937 22.2962 176.958C21.3764 184.791 19.286 192.346 18.0317 200.095C16.9447 206.786 17.8087 213.671 19.1466 220.25C20.6238 227.498 23.7455 234.244 25.6687 241.38C29.7938 256.684 26.1704 272.602 24.5538 287.989C23.1881 300.812 22.2125 313.719 22.1568 326.626C22.1011 341.177 23.7177 355.394 27.1181 369.555C30.5185 383.716 32.9155 397.543 32.1908 412.373C31.5498 425.503 29.7102 438.521 28.1772 451.567C26.8672 462.717 26.0589 473.924 24.9162 485.102C23.6062 498.064 22.2125 510.859 24.5817 523.766C26.0589 531.739 28.3723 539.544 30.7136 547.266C32.4974 553.148 34.337 559.002 36.2045 564.856C38.0719 570.71 40.4689 576.508 41.1379 582.585C43.3677 603.158 34.5321 623.507 30.8808 643.439C30.2119 647.091 29.5987 650.882 29.766 654.589C29.9889 660.192 31.5777 665.795 32.2187 671.371C33.8074 685.504 33.7517 699.972 31.0481 713.966C29.7938 720.489 27.9264 726.844 25.39 733.005C24.5538 735.068 27.8985 735.988 28.7625 733.925C33.9189 721.325 36.2323 707.777 36.6783 694.201C36.9013 687.177 36.6225 680.124 35.8979 673.155C35.2847 667.217 33.8074 661.335 33.3057 655.398C32.5811 646.895 35.5634 637.863 37.5702 629.724C40.1345 619.354 42.866 608.956 44.2038 598.307C44.817 593.373 45.1515 588.355 44.7055 583.366C44.2038 577.818 42.3921 572.717 40.7198 567.448C37.2915 556.688 33.7796 545.928 30.8251 535C27.4247 522.4 26.1425 510.413 27.2296 497.423C29.0413 475.875 31.4662 454.382 33.8911 432.89C36.0094 414.241 36.7898 396.037 32.6368 377.667C29.8774 365.401 26.8672 353.443 26.0311 340.842C25.3621 330.528 25.5851 320.186 26.1704 309.872C27.0623 294.902 29.4036 280.128 30.63 265.214C31.2432 257.771 31.2153 250.245 29.5987 242.913C27.9821 235.582 24.7768 228.947 23.0208 221.783C21.0977 213.978 20.2057 205.726 22.0174 197.838C23.6062 190.924 24.9162 183.983 25.7523 176.958C27.1181 165.334 27.0623 153.654 26.0032 142.001C25.1113 131.938 23.6062 121.931 23.0208 111.839C22.7143 106.738 22.6864 101.637 22.9372 96.5354C23.0487 94.3053 19.5647 94.3053 19.4532 96.5354H19.4811Z" fill="#231F20"/>
<path d="M13.1267 93.1623C9.92137 79.0012 8.55563 64.5335 9.55903 50.0099C10.0607 42.7064 11.0641 35.4028 12.6807 28.2665C14.2973 21.1302 17.0846 13.966 24.5265 11.9589C26.7005 11.3735 25.7807 8.0005 23.6067 8.5859C9.05733 12.5164 7.80308 32.5037 6.52095 44.7971C4.79286 61.3277 6.10286 77.8862 9.78201 94.0822C10.2837 96.2566 13.6284 95.3367 13.1546 93.1623H13.1267Z" fill="#231F20"/>
</svg>
