<?xml version="1.0" encoding="UTF-8"?>
<svg id="Layer_2" xmlns="http://www.w3.org/2000/svg" viewBox="0 0 406.94 312.75">
  <defs>
    <style>
      .cls-1 {
        fill: #fff;
        stroke: #231f20;
        stroke-miterlimit: 10;
      }
    </style>
  </defs>
  <g id="Layer_1-2" data-name="Layer_1">
    <g>
      <g>
        <path class="cls-1" d="M203.47,30.49v281.5H1.33S.5,9.02.5,9.02l68.25,1.26c18.63.76,37.18,2.75,55.55,5.95l79.16,14.26Z"/>
        <path class="cls-1" d="M203.47,26.5v281.5H8.3S7.5,5.02,7.5,5.02l65.9,1.26c17.99.76,35.9,2.75,53.64,5.95l76.43,14.26Z"/>
        <path class="cls-1" d="M203.47,21.95v281.06H15.52S14.75.51,14.75.51l63.46,1.26c17.32.76,34.57,2.74,51.65,5.94l73.61,14.24Z"/>
      </g>
      <g>
        <path class="cls-1" d="M203.47,30.75v281.5h202.14l.83-302.97-68.25,1.26c-18.63.76-37.18,2.75-55.55,5.95l-79.16,14.26Z"/>
        <path class="cls-1" d="M203.47,26.76v281.5s195.17,0,195.17,0l.8-302.97-65.9,1.26c-17.99.76-35.9,2.75-53.64,5.95l-76.43,14.26Z"/>
        <path class="cls-1" d="M203.47,22.21v281.06s187.95,0,187.95,0l.77-302.5-63.46,1.26c-17.32.76-34.57,2.74-51.65,5.94l-73.61,14.24Z"/>
      </g>
    </g>
  </g>
</svg>