<svg width="516" height="122" viewBox="0 0 516 122" fill="none" xmlns="http://www.w3.org/2000/svg">
<g clip-path="url(#clip0_671_59)">
<path d="M15.2334 1.71924L5.01211 48.9999C2.61361 60.0726 1.52507 71.3853 1.76492 82.698C10.4364 83.3808 19.1263 84.0452 27.7978 84.728C49.329 89.0648 72.6128 88.2159 95.0111 89.9691C124.107 92.239 154.143 89.0464 182.298 96.7604C185.767 97.7016 186.8 98.5689 247.205 101.817C272.186 103.164 297.74 101.614 322.02 107.649C346.3 113.683 377.259 104.88 404.528 110.749C428.55 115.935 459.583 118.352 486.649 120.456C486.225 112.059 485.8 103.662 485.376 95.284" fill="white"/>
<path d="M15.2334 1.71924L5.01211 48.9999C2.61361 60.0726 1.52507 71.3853 1.76492 82.698C10.4364 83.3808 19.1263 84.0452 27.7978 84.728C49.329 89.0648 72.6128 88.2159 95.0111 89.9691C124.107 92.239 154.143 89.0464 182.298 96.7604C185.767 97.7016 186.8 98.5689 247.205 101.817C272.186 103.164 297.74 101.614 322.02 107.649C346.3 113.683 377.259 104.88 404.528 110.749C428.55 115.935 459.583 118.352 486.649 120.456C486.225 112.059 485.8 103.662 485.376 95.284" stroke="#231F20" stroke-width="3" stroke-miterlimit="10"/>
<path d="M15.6029 4.78271C15.4 13.5671 10.1602 23.4772 9.95724 32.2801C9.73584 41.8211 8.35209 50.9746 12.7616 59.7774" fill="white"/>
<path d="M15.6029 4.78271C15.4 13.5671 10.1602 23.4772 9.95724 32.2801C9.73584 41.8211 8.35209 50.9746 12.7616 59.7774" stroke="#231F20" stroke-width="3" stroke-miterlimit="10"/>
<path d="M15.6042 1.79346L498.403 20.4326C502.536 20.5987 506.3 22.9055 508.219 26.5595C512.333 34.3104 514.768 45.2909 514.768 52.3221C514.768 62.712 512.425 78.2693 506.687 90.7446C505.082 94.2325 501.484 96.3363 497.665 96.041C336.708 83.9717 173.628 71.4595 12.6706 59.3718C12.5046 59.3718 12.4308 59.1503 12.5599 59.0211C20.7333 51.2518 20.5119 34.9379 20.6226 32.2804C20.7702 28.4419 20.9362 8.56629 15.6042 4.7831V1.79346Z" fill="white" stroke="#231F20" stroke-width="3" stroke-miterlimit="10"/>
<path d="M227.741 9.93188C231.321 10.0611 234.568 12.0726 236.228 15.2284C239.789 21.9274 241.893 31.4315 241.893 37.503C241.893 46.4904 239.863 59.9438 234.9 70.7213C233.516 73.7294 230.398 75.5564 227.096 75.298" fill="white"/>
<path d="M227.741 9.93188C231.321 10.0611 234.568 12.0726 236.228 15.2284C239.789 21.9274 241.893 31.4315 241.893 37.503C241.893 46.4904 239.863 59.9438 234.9 70.7213C233.516 73.7294 230.398 75.5564 227.096 75.298" stroke="#231F20" stroke-width="3" stroke-miterlimit="10"/>
<path d="M299.459 12.6155C302.964 12.7476 306.175 14.7668 307.817 17.9559C311.304 24.7117 314.016 36.9211 314.016 43.0353C314.016 52.0745 312.023 65.6237 307.134 76.4745C305.769 79.4938 302.706 81.3432 299.459 81.079" stroke="#231F20" stroke-width="3" stroke-miterlimit="10"/>
</g>
<defs>
<clipPath id="clip0_671_59">
<rect width="514.865" height="120.619" fill="white" transform="translate(0.824219 0.833496)"/>
</clipPath>
</defs>
</svg>
