<?xml version="1.0" encoding="UTF-8"?>
<svg id="Layer_2" xmlns="http://www.w3.org/2000/svg" viewBox="0 0 138.91 36.55">
  <defs>
    <style>
      .cls-1 {
        fill: #231f20;
      }

      .cls-2 {
        fill: none;
        stroke: #231f20;
        stroke-miterlimit: 10;
      }
    </style>
  </defs>
  <g id="Layer_1-2" data-name="Layer_1">
    <g>
      <g>
        <path class="cls-1" d="M.89,33.4c-.05-.57-.07-1.11-.06-1.63l3.98-.43c.05-1.99-.04-6.26-.26-12.81s-.39-10.62-.51-12.15l-3.98.23c0-.11-.02-.26-.04-.42-.02-.17-.03-.28-.03-.34,0-.08,0-.21,0-.39,0-.17.01-.33,0-.47.3-.03,1.29-.11,2.99-.25,1.7-.14,2.8-.24,3.31-.28l5.4-.54c.05.57.07,1.11.06,1.63l-3.24.42c-.01,2.24.09,6.36.3,12.37.22,6.4.4,10.62.53,12.65l4.12-.18c.05.52.07,1.06.06,1.64-3.14.21-5.3.35-6.47.44-.51.04-1.6.13-3.26.27-1.66.14-2.63.22-2.93.24ZM18.51,32.08c-.05-.58-.07-1.13-.06-1.65l3.33-.38-12.5-11.79,11.58-13.32-4.01.15c0-.11-.02-.26-.04-.43-.02-.17-.03-.28-.03-.34,0-.09,0-.22,0-.39,0-.17.01-.33,0-.48.3-.03,1.23-.11,2.8-.24,1.57-.13,2.61-.22,3.13-.27l6.1-.6c.05.58.07,1.12.06,1.65l-4.68.64-10.63,11.97c7.81,7.25,12.61,11.6,14.32,12.98l3.89-.16c.05.52.07,1.08.06,1.66-3.21.21-5.41.36-6.61.45-.52.04-1.7.13-3.54.29-1.83.15-2.9.24-3.2.26Z"/>
        <path class="cls-1" d="M37.15,19.75c-.16-4.08-.31-7.15-.45-9.21l-3.63.18c-.05-.49-.07-1.01-.06-1.57,2.44-.18,4.27-.33,5.49-.44.53-.05,1.56-.14,3.11-.29,1.55-.15,2.47-.24,2.79-.27.05.55.07,1.08.06,1.58l-3.32.42c-.04,2.2,0,4.9.13,8.11.34-.03,1.09-.08,2.23-.16,1.14-.08,2.09-.15,2.85-.21,2.33-.19,4.11-.35,5.34-.48-.08-1.97-.22-4.68-.43-8.14l-3.69.19c-.05-.49-.07-1.02-.06-1.58,2.49-.19,4.35-.34,5.58-.44.54-.05,1.59-.15,3.16-.3,1.57-.15,2.52-.24,2.84-.27.05.56.08,1.09.07,1.59l-3.38.43c-.04,2.04.02,5.13.19,9.29s.33,7.24.48,9.33l3.74-.15c.05.5.08,1.03.07,1.6-2.52.16-4.4.28-5.64.38-.54.04-1.59.13-3.16.26-1.56.13-2.5.21-2.82.23-.05-.56-.08-1.09-.06-1.59l3.36-.39c.04-2.22-.01-5.07-.15-8.54-.38.03-1.18.09-2.39.17-1.21.08-2.21.16-3,.22s-1.69.14-2.82.25c-1.13.11-1.86.17-2.2.2.15,3.92.29,6.74.43,8.46l3.67-.15c.05.5.07,1.03.06,1.59-2.48.16-4.33.28-5.54.37-.53.04-1.57.12-3.11.25-1.54.13-2.46.21-2.77.23-.05-.55-.07-1.08-.06-1.58l3.3-.38c.05-2.03,0-5.1-.17-9.21Z"/>
        <path class="cls-1" d="M66.98,17.33c-.18-4.15-.34-7.27-.49-9.37l-3.75.19c-.05-.5-.08-1.03-.07-1.59,2.53-.19,4.42-.34,5.68-.45.55-.05,1.62-.15,3.21-.3,1.6-.15,2.56-.25,2.89-.27.06.56.08,1.1.07,1.6l-3.44.43c-.03,2.24.1,6.8.4,13.7l10.58-12.22-.11-2.42-3.68.18c-.06-.5-.08-1.04-.07-1.61,2.41-.18,4.26-.33,5.53-.44.56-.05,1.65-.15,3.27-.31,1.63-.16,2.61-.25,2.94-.28.06.57.08,1.11.07,1.62l-3.5.44c-.04,2.08.04,5.22.23,9.45.19,4.2.36,7.37.53,9.49l3.87-.16c.06.51.08,1.05.07,1.63-2.61.17-4.56.3-5.84.39-.56.04-1.65.13-3.27.27-1.62.14-2.59.22-2.92.24-.06-.57-.08-1.1-.07-1.62l3.48-.4c.03-2.26-.11-6.92-.43-13.98l-10.58,12.21.11,2.59,3.65-.14c.05.51.08,1.04.07,1.61-2.4.15-4.23.27-5.5.37-.55.04-1.62.13-3.22.26-1.59.13-2.55.21-2.87.24-.06-.56-.08-1.1-.07-1.6l3.42-.39c.04-2.06-.03-5.18-.21-9.37Z"/>
        <path class="cls-1" d="M99.54,3.38l10.51-.97,3.13-.5c.02.46.11,1.78.27,3.98.16,2.2.24,3.42.26,3.66-.27.05-.73.11-1.37.16-.61.05-1.03.07-1.27.06l-.84-4.73c-.08-.33-.2-.55-.36-.65-.16-.11-.47-.14-.95-.1l-6.55.48c0,2.82.08,6.04.25,9.67.1,2.18.29,5.36.55,9.53l4.85-.23c.06.51.08,1.06.08,1.64-3.27.21-5.55.37-6.86.47-.57.04-1.68.13-3.33.27-1.65.14-2.64.22-2.97.24-.06-.57-.09-1.11-.08-1.63l3.54-.4c.04-2.1-.05-5.27-.24-9.53-.2-4.22-.38-7.4-.54-9.53l-3.89.2c-.06-.51-.08-1.05-.07-1.62,2.62-.2,4.58-.36,5.88-.47Z"/>
        <path class="cls-1" d="M120.75,8.87l-2.86.24c-.31-.71-.48-1.46-.52-2.25-.08-1.67.7-3.12,2.35-4.33,1.65-1.22,3.7-1.93,6.13-2.14,2.78-.24,4.82.28,6.1,1.57,1.28,1.29,1.97,2.86,2.07,4.7.02.4.1,2.11.24,5.15.14,3.03.25,5.32.33,6.86l.13,2.59,4.13-.22c.06.49.08.93.07,1.3-2.69.73-5.33,1.34-7.91,1.85-.31-.72-.58-1.86-.8-3.42-.71,1.07-1.69,1.97-2.96,2.7-1.26.73-2.51,1.14-3.75,1.23-1.89.14-3.44-.26-4.67-1.19-1.23-.94-1.88-2.26-1.97-3.97-.21-4.33,4.05-6.85,12.84-7.57l-.08-3.64c-.14-1.99-.55-3.41-1.26-4.26-.7-.85-1.81-1.2-3.32-1.07s-2.75.53-3.63,1.19c-.88.66-1.29,1.41-1.25,2.27.03.67.23,1.48.58,2.43ZM129.96,19.25c-.02-.43-.06-1.38-.12-2.84-.06-1.46-.1-2.44-.12-2.93-5.61.45-8.34,2.02-8.2,4.71.05,1.04.35,1.91.9,2.6.55.7,1.41,1,2.58.91,2.13-.16,3.79-.98,4.96-2.46Z"/>
      </g>
      <circle class="cls-2" cx="46.03" cy="18.28" r="17.78"/>
    </g>
  </g>
</svg>