<svg width="528" height="207" viewBox="0 0 528 207" fill="none" xmlns="http://www.w3.org/2000/svg">
<g clip-path="url(#clip0_524_7263)">
<path d="M34.9202 3.45974L507.511 103.961C511.555 104.828 514.872 107.741 516.141 111.669C518.877 120.006 519.408 131.241 518.212 138.17C516.445 148.408 511.489 163.34 503.713 174.657C501.537 177.821 497.634 179.283 493.921 178.342C337.363 139.066 178.789 98.9934 22.2341 59.6997C22.0705 59.6714 22.0354 59.4407 22.1847 59.3353C31.5606 53.0697 34.1178 36.9559 34.6789 34.3561C35.4774 30.5986 39.0223 11.0409 34.4116 6.40581L34.9202 3.45974Z" stroke="#231F20" stroke-width="3" stroke-miterlimit="10"/>
<path d="M34.5679 3.32413L16.4522 48.1767C12.2049 58.6801 9.20772 69.6426 7.51956 80.8312C15.9485 82.9793 24.3987 85.1123 32.8277 87.2603C53.3072 95.1968 76.3961 98.3214 98.1696 103.859C126.455 111.046 156.597 113.01 183.029 125.401C186.287 126.919 187.157 127.949 246.129 141.426C270.517 147.003 295.962 149.823 318.862 159.9C341.761 169.977 373.766 166.569 399.64 176.991C422.429 186.188 452.598 193.85 478.912 200.528C479.922 192.181 480.933 183.834 481.94 175.506" stroke="#231F20" stroke-width="3" stroke-miterlimit="10"/>
<path d="M34.4116 6.4058C32.7172 15.0276 25.8679 23.9019 24.1703 32.5419C22.329 41.9062 19.4083 50.6908 22.256 60.1155" stroke="#231F20" stroke-width="3" stroke-miterlimit="10"/>
<path d="M234.511 45.959C238.017 46.6944 240.876 49.217 241.979 52.5904C244.355 59.7576 244.821 69.4242 243.794 75.371C242.275 84.1737 238 97.0054 231.287 106.717C229.415 109.428 226.033 110.687 222.822 109.872" stroke="#231F20" stroke-width="3" stroke-miterlimit="10"/>
<path d="M298.605 59.593C302.038 60.3179 304.862 62.8294 305.944 66.2129C308.245 73.3818 308.866 85.7272 307.839 91.6784C306.32 100.477 302.08 113.326 295.438 123.055C293.585 125.762 290.257 127.041 287.101 126.231" stroke="#231F20" stroke-width="3" stroke-miterlimit="10"/>
</g>
<defs>
<clipPath id="clip0_524_7263">
<rect width="514.865" height="120.619" fill="white" transform="translate(20.5195) rotate(9.79481)"/>
</clipPath>
</defs>
</svg>
