<svg width="227" height="598" viewBox="0 0 227 598" fill="none" xmlns="http://www.w3.org/2000/svg">
<g clip-path="url(#clip0_524_5874)">
<rect x="7" y="217" width="220" height="288" rx="49" fill="white"/>
<rect x="97.8281" y="-4.1134" width="104.518" height="132.403" rx="8" transform="rotate(38.7247 97.8281 -4.1134)" fill="white"/>
<rect x="3" y="361" width="160" height="61" fill="white"/>
<path d="M133.961 111C120.712 114.463 97.3435 119.208 70.0218 119.126C38.1393 119.045 17.8341 114.045 3.5 110.5V588.5C17.8341 592.045 38.1393 596.294 70.0218 596.376C97.3869 596.457 120.712 591.712 133.961 588.249V111Z" fill="white" stroke="#231F20" stroke-width="3" stroke-miterlimit="10"/>
<path d="M3.10133 109.679L93.5365 -0.19091L224.368 1.36347L133.976 111.261" stroke="#231F20" stroke-width="3" stroke-miterlimit="10"/>
<path d="M133.848 587.039C133.318 587.675 133.403 588.621 134.039 589.152C134.675 589.683 135.621 589.597 136.152 588.961L133.848 587.039ZM227 477.728L228.152 478.689L228.501 478.27L228.5 477.724L227 477.728ZM136.152 588.961L228.152 478.689L225.848 476.767L133.848 587.039L136.152 588.961ZM228.5 477.724L227.351 -0.00360739L224.351 0.00360739L225.5 477.731L228.5 477.724Z" fill="#231F20"/>
</g>
<defs>
<clipPath id="clip0_524_5874">
<rect width="227" height="598" fill="white"/>
</clipPath>
</defs>
</svg>
